<svg width="40" height="40" viewBox="0 0 40 40" fill="none" xmlns="http://www.w3.org/2000/svg">
<g clip-path="url(#clip0_62_3447)">
<path d="M-10 0H50V40H-10V0Z" fill="black"/>
<path d="M-10 0H50V26.6667H-10V0Z" fill="white"/>
<path d="M-10 0H50V13.3333H-10V0Z" fill="#CE1126"/>
<path d="M20.054 20.1603L24.6199 24.3989L24.2948 16.7009C24.2471 15.5342 23.2332 15.8019 22.4968 16.2227C21.7507 16.7009 20.8996 16.7009 20.0004 16.3852C19.1014 16.7009 18.2502 16.7009 17.5041 16.2227C16.7677 15.8019 15.754 15.5342 15.7061 16.7009L15.3809 24.3989L20.054 20.1603Z" fill="white" stroke="#C09300" stroke-width="0.0846906" stroke-linejoin="round"/>
<path d="M16.2321 16.4329L15.9165 23.9209L15.3809 24.3988L15.7061 16.7008C15.8591 16.5956 16.127 16.4329 16.2321 16.4329ZM16.8735 16.9689L16.6057 23.2326L16.0702 23.7806L16.3953 16.5479C16.5006 16.6531 16.8163 16.9113 16.8735 16.9686V16.9689ZM17.4568 17.4469L17.2465 22.671L16.8161 23.0917L17.084 17.1313C17.1889 17.2365 17.3993 17.3896 17.4568 17.4469ZM18.0881 17.7149L17.8777 22.1674L17.4569 22.5087L17.6673 17.5524C17.7725 17.6002 17.9829 17.7149 18.0881 17.7149ZM18.6715 17.7149L18.5183 21.4254L18.088 21.8462L18.2507 17.7628C18.3557 17.7628 18.6235 17.7628 18.6715 17.7149Z" fill="#C09300"/>
<path d="M23.7698 16.4329L24.0854 23.9209L24.6211 24.3988L24.2958 16.7008C24.1429 16.5956 23.875 16.4329 23.7698 16.4329ZM23.1285 16.9689L23.3963 23.2326L23.9318 23.7806L23.6066 16.5479C23.5014 16.6531 23.1857 16.9113 23.1285 16.9686V16.9689ZM22.5452 17.4469L22.7555 22.671L23.1858 23.0917L22.918 17.1313C22.813 17.2365 22.6026 17.3896 22.5452 17.4469ZM21.9138 17.7149L22.1242 22.1674L22.5451 22.5087L22.3347 17.5524C22.2294 17.6002 22.019 17.7149 21.9138 17.7149ZM21.3305 17.7149L21.4836 21.4254L21.914 21.8462L21.7513 17.7628C21.6463 17.7628 21.3784 17.7628 21.3305 17.7149Z" fill="#C09300"/>
<path d="M20.2101 21.004L20.851 23.9211L20.6404 24.1314L20.4205 23.9688L20.057 21.3676L20.2101 23.9688L19.9996 24.2365L19.7892 23.9688L19.9423 21.3676L19.5789 23.9688L19.3587 24.1314L19.1484 23.9211L19.7892 21.004L20.2101 21.004Z" fill="#C09300" stroke="#C09300" stroke-width="0.0715907"/>
<path d="M18.5669 19.7227L17.2949 24.2363L19.0453 24.5042L19.7911 21.1093L18.5669 19.7227L18.5669 19.7227Z" fill="white" stroke="#C09300" stroke-width="0.0792673" stroke-linejoin="round"/>
<path d="M18.1465 21.2627L18.2995 21.6356L19.1265 20.8457" stroke="#C09300" stroke-width="0.0846595" stroke-linejoin="round"/>
<path d="M18.7206 20.3281L18.8937 21.9512L19.4197 21.2626M19.2093 21.5301L19.4966 22.5218M19.6093 22.1574L19.0281 23.0402M19.2094 23.9212L19.0233 23.0414L18.861 22.1465L18.4716 22.6738L18.3008 22.0659L17.7559 22.6248L18.033 23.6416L18.4155 23.0126L18.6259 23.6534L19.0186 23.0426" stroke="#C09300" stroke-width="0.0846595" stroke-linejoin="round"/>
<path d="M17.668 24.1314L18.0213 23.6351L18.2515 24.3989L18.5671 23.8634L18.7776 24.5044" stroke="#C09300" stroke-width="0.0846595" stroke-linejoin="round"/>
<path d="M21.437 19.7232L22.709 24.2368L20.9587 24.5047L20.2128 21.1097L21.437 19.7231L21.437 19.7232Z" fill="white" stroke="#C09300" stroke-width="0.0792673" stroke-linejoin="round"/>
<path d="M21.8574 21.2632L21.7044 21.6361L20.8774 20.8462" stroke="#C09300" stroke-width="0.0846595" stroke-linejoin="round"/>
<path d="M21.2833 20.3286L21.1103 21.9517L20.5842 21.2631M20.7946 21.5306L20.5073 22.5223M20.3946 22.1579L20.9758 23.0407M20.7946 23.9217L20.9806 23.0419L21.143 22.147L21.5323 22.6743L21.7031 22.0663L22.248 22.6253L21.9709 23.6421L21.5884 23.0131L21.378 23.6539L20.9853 23.0431" stroke="#C09300" stroke-width="0.0846595" stroke-linejoin="round"/>
<path d="M22.3359 24.1319L21.9826 23.6356L21.7524 24.3994L21.4368 23.8639L21.2263 24.5048" stroke="#C09300" stroke-width="0.0846595" stroke-linejoin="round"/>
<path d="M20.0028 26.2538C21.3323 26.2538 22.6044 26.1486 23.3503 25.9382C23.666 25.881 23.666 25.7184 23.666 25.5079C23.9817 25.4027 23.819 25.0298 24.039 25.0298C23.819 25.0873 23.7713 24.6569 23.5035 24.7144C23.5035 24.3413 23.1304 24.2936 22.8148 24.3986C22.1835 24.6091 21.0645 24.6569 20.0028 24.6569C18.9412 24.6091 17.8317 24.6091 17.1909 24.3986C16.8753 24.2936 16.5024 24.3413 16.5024 24.7144C16.2345 24.6569 16.1867 25.0874 15.9668 25.0299C16.1867 25.0299 16.0241 25.4027 16.3397 25.5079C16.3397 25.7184 16.3397 25.881 16.6649 25.9382C17.4013 26.1486 18.6735 26.2538 20.0028 26.2538Z" fill="white" stroke="#C09300" stroke-width="0.158535" stroke-linecap="round" stroke-linejoin="round"/>
<path d="M18.1927 24.2359C18.623 24.2934 19.1013 24.3411 19.4744 24.2934C19.6846 24.2934 19.8377 24.6567 19.4169 24.7142C19.044 24.7619 18.4606 24.7142 18.1449 24.6567C17.8771 24.6089 17.2937 24.5037 16.9206 24.3984C16.5476 24.236 16.8155 23.9205 17.0258 23.9682C17.351 24.0734 17.7719 24.1786 18.1928 24.236L18.1927 24.2359ZM21.8081 24.2359C21.3776 24.2934 20.8995 24.3411 20.536 24.2934C20.3159 24.2934 20.1629 24.6567 20.5838 24.7142C20.9568 24.7619 21.5403 24.7142 21.8557 24.6567C22.1236 24.6089 22.7069 24.5037 23.0799 24.3984C23.453 24.236 23.1853 23.9205 22.9748 23.9682C22.6496 24.0734 22.2288 24.1786 21.8081 24.2359Z" fill="white" stroke="#C09300" stroke-width="0.0846595" stroke-linecap="round" stroke-linejoin="round"/>
<path d="M16.8765 24.026C16.5514 23.9685 16.3984 24.3414 16.5037 24.5517C16.5514 24.4466 16.7714 24.4466 16.8193 24.3414C16.8765 24.1789 16.7714 24.1789 16.8765 24.026ZM18.1485 25.004C18.1485 24.7938 18.3588 24.8196 18.3588 24.6092C18.3588 24.504 18.3016 24.3414 18.1964 24.3414C18.0911 24.3414 17.9859 24.4465 17.9859 24.5517C17.938 24.7622 18.1485 24.7938 18.1485 25.004ZM19.6625 24.3986C19.9779 24.3986 19.9466 24.8196 19.7936 25.0299C19.7936 24.8769 19.5258 24.8196 19.5258 24.7145C19.5258 24.5517 19.7675 24.5517 19.6625 24.3986ZM23.1312 24.026C23.4564 23.9685 23.6095 24.3414 23.5042 24.5517C23.4563 24.4466 23.2364 24.4466 23.1886 24.3414C23.1312 24.1789 23.2364 24.1789 23.1312 24.026ZM21.8592 25.004C21.8592 24.7938 21.649 24.8196 21.649 24.6092C21.649 24.504 21.7063 24.3414 21.8115 24.3414C21.9166 24.3414 22.0219 24.4465 22.0219 24.5517C22.0698 24.7622 21.8592 24.7938 21.8592 25.004ZM20.3452 24.3986C20.0297 24.3986 20.061 24.8196 20.214 25.0299C20.214 24.8769 20.4817 24.8196 20.4817 24.7145C20.4818 24.5517 20.24 24.5517 20.3452 24.3986Z" fill="white" stroke="#C09300" stroke-width="0.0846595" stroke-linecap="round" stroke-linejoin="round"/>
<path d="M16.9827 24.1312C17.0881 24.1312 17.2506 24.1791 17.2984 24.2364L16.9824 24.131L16.9827 24.1312ZM17.5081 24.2939C17.5655 24.2939 17.7759 24.3416 17.8811 24.3989L17.5078 24.2936L17.5081 24.2939ZM19.4214 24.5039C19.3162 24.5039 19.1058 24.5039 19.0485 24.5516L19.4212 24.5036L19.4214 24.5039ZM18.8381 24.5039C18.7808 24.4464 18.5703 24.4464 18.4652 24.5039H18.8378H18.8381ZM23.0274 24.1312C22.9222 24.1312 22.7691 24.1791 22.7117 24.2364L23.0274 24.1312ZM22.5014 24.2939C22.444 24.2939 22.2336 24.3416 22.1284 24.3989L22.5017 24.2936L22.5014 24.2939ZM20.5881 24.5039C20.6934 24.5039 20.9037 24.5039 20.9611 24.5516L20.5878 24.5036L20.5881 24.5039ZM21.1714 24.5039C21.2287 24.4464 21.4393 24.4464 21.5444 24.5039H21.1711H21.1714Z" fill="white" stroke="#C09300" stroke-width="0.0593922" stroke-linecap="round" stroke-linejoin="round"/>
<path d="M16.8913 24.9718C16.8557 24.965 16.837 24.9368 16.846 24.9035C16.8569 24.8629 16.8894 24.8397 16.9201 24.8505C16.9397 24.8574 16.9755 24.8935 16.9756 24.9065C16.9758 24.9213 16.9569 24.9566 16.9488 24.9567C16.9453 24.9567 16.9398 24.9598 16.9367 24.9635C16.93 24.9714 16.9091 24.9752 16.8913 24.9718V24.9718ZM20.5533 25.2331C20.5401 25.2282 20.519 25.1986 20.519 25.1849C20.5191 25.1591 20.5573 25.117 20.5809 25.1168C20.5926 25.1167 20.6246 25.1333 20.6365 25.1458C20.6582 25.1683 20.6535 25.2053 20.6262 25.2263C20.6128 25.2366 20.5729 25.2404 20.5533 25.2331L20.5533 25.2331ZM20.5773 25.3985C20.5493 25.389 20.5391 25.3753 20.5368 25.3442C20.5344 25.3119 20.5375 25.3068 20.5717 25.2882L20.5961 25.2749L20.6192 25.2852C20.6512 25.2995 20.6654 25.3149 20.6666 25.3364C20.6678 25.3595 20.6506 25.3833 20.6239 25.3952C20.6005 25.4057 20.5991 25.4058 20.5773 25.3985V25.3985Z" fill="#C09300"/>
<path d="M17.1835 24.6724C17.1604 24.6717 17.1287 24.6929 17.1106 24.7036C17.0673 24.7138 17.0169 24.7404 16.9751 24.712C16.934 24.6992 16.8793 24.7093 16.873 24.7599C16.8836 24.8033 16.9445 24.8282 16.9814 24.7995C17.0088 24.7636 17.0835 24.7426 17.0918 24.8036C17.0613 24.8498 17.0648 24.9109 17.0397 24.9599C17.0356 24.9904 17.0229 25.0194 17.0064 25.0453C16.9756 25.0484 16.9428 25.0448 16.9168 25.064C16.8751 25.0663 16.8325 25.0871 16.8085 25.1224C16.7816 25.1609 16.7559 25.2001 16.748 25.2474C16.7552 25.2957 16.8105 25.3096 16.8522 25.312C16.8967 25.3242 16.9412 25.3402 16.9856 25.3536C17.0579 25.3698 17.1257 25.396 17.1981 25.412C17.3037 25.4438 17.4146 25.4585 17.521 25.487C17.5321 25.4907 17.5426 25.4939 17.5543 25.4953C17.5985 25.5045 17.6215 25.4564 17.6251 25.4203C17.647 25.343 17.6638 25.2644 17.6855 25.187C17.7005 25.1559 17.7186 25.0858 17.6585 25.1016C17.6241 25.1221 17.595 25.1531 17.5522 25.1557C17.4939 25.1591 17.5272 25.2187 17.5501 25.2432C17.5552 25.2824 17.5428 25.3291 17.5168 25.3599C17.4822 25.3819 17.4387 25.3562 17.4022 25.3474C17.3639 25.348 17.2873 25.3285 17.3231 25.2765C17.3357 25.2381 17.3369 25.196 17.3522 25.1578C17.3718 25.1168 17.3746 25.0721 17.3835 25.0286C17.3594 24.9768 17.3182 25.0457 17.2856 25.0515C17.263 25.0672 17.1785 25.0738 17.223 25.114C17.2614 25.1432 17.232 25.1938 17.2251 25.2307C17.2227 25.2821 17.1693 25.2943 17.1272 25.2828C17.0854 25.2808 17.0271 25.2496 17.0626 25.2036C17.0707 25.1653 17.0841 25.1276 17.0918 25.089C17.1076 25.0425 17.1209 24.9982 17.1376 24.9515C17.1449 24.9102 17.1597 24.871 17.1793 24.8349C17.1805 24.7892 17.2111 24.7499 17.2105 24.7036C17.2074 24.681 17.1973 24.6728 17.1835 24.6724ZM16.9439 25.1557C16.9493 25.1548 16.9532 25.1556 16.9585 25.1578C16.9751 25.1649 16.9756 25.1784 16.9585 25.1932C16.951 25.1997 16.9425 25.2059 16.9397 25.2057C16.9085 25.203 16.8993 25.1984 16.8981 25.187C16.8969 25.1769 16.9001 25.174 16.921 25.164C16.9313 25.1591 16.9384 25.1567 16.9439 25.1557ZM16.8748 25.4904C16.8417 25.4593 16.8471 25.4366 16.896 25.4002C16.9169 25.3846 16.9296 25.3863 16.9535 25.4082C16.9903 25.4418 16.9918 25.463 16.9593 25.4918C16.9432 25.506 16.9362 25.509 16.9175 25.5092C16.8979 25.5094 16.8924 25.5069 16.8748 25.4904ZM17.0781 25.5517C17.0705 25.5499 17.0634 25.5465 17.0571 25.5419C17.0508 25.5372 17.0456 25.5312 17.0417 25.5244C17.0378 25.5176 17.0354 25.5101 17.0345 25.5023C17.0336 25.4946 17.0344 25.4867 17.0366 25.4792C17.0452 25.4502 17.0502 25.4474 17.0927 25.447C17.1403 25.4465 17.1496 25.4545 17.15 25.4964C17.1503 25.52 17.1485 25.5255 17.1367 25.5364C17.1229 25.5493 17.0964 25.5562 17.0781 25.5517V25.5517ZM23.0188 25.557C23.0037 25.5445 23.0006 25.5388 23.0004 25.5227C23.0002 25.4954 23.016 25.4753 23.0502 25.4598C23.0956 25.4392 23.1142 25.442 23.1313 25.4722C23.1541 25.5123 23.153 25.5286 23.1257 25.5556C23.1106 25.5706 23.1078 25.5714 23.0734 25.5718C23.0395 25.572 23.0357 25.5711 23.0188 25.557ZM17.3481 25.6337C17.3239 25.6272 17.3113 25.609 17.311 25.5799C17.3107 25.5577 17.3123 25.5541 17.3279 25.5419C17.338 25.5341 17.3539 25.5273 17.3665 25.5256C17.3843 25.5231 17.3908 25.5247 17.4051 25.5347C17.4418 25.5605 17.4496 25.5861 17.4283 25.6108C17.4057 25.6372 17.3842 25.6433 17.3481 25.6337ZM18.8095 25.699C18.8041 25.6923 18.7922 25.6884 18.791 25.6799C18.7931 25.6429 18.7949 25.6055 18.8067 25.57C18.8131 25.5352 18.8074 25.4987 18.8196 25.4648C18.8321 25.403 18.8321 25.3393 18.8464 25.2779C18.8471 25.2463 18.8501 25.2146 18.8593 25.1842C18.8698 25.1361 18.8602 25.0858 18.8743 25.0382C18.8728 25.0204 18.8934 24.9727 18.9114 25.0009C18.9376 25.0394 18.9722 25.0706 19.0061 25.1019C19.0353 25.1188 19.0085 25.1436 18.9884 25.1519C18.9607 25.1628 18.954 25.1933 18.9559 25.2201C18.952 25.2477 18.941 25.2739 18.9398 25.3021C18.934 25.3436 18.9351 25.3857 18.9297 25.4272C18.9176 25.4678 18.9222 25.5112 18.9182 25.553C18.9187 25.5796 18.9061 25.6037 18.9078 25.6304C18.9046 25.6574 18.9034 25.69 18.8807 25.7085C18.8588 25.7196 18.8271 25.7177 18.8095 25.699H18.8095ZM20.7895 25.0457C20.7573 25.07 20.7286 25.0987 20.6999 25.127C20.6604 25.1569 20.7323 25.1743 20.7415 25.1999C20.752 25.239 20.7514 25.2806 20.7541 25.3207C20.766 25.3575 20.7713 25.3966 20.7686 25.4353C20.7652 25.4768 20.7111 25.4681 20.6874 25.4916C20.6546 25.5054 20.6415 25.5376 20.6165 25.5603C20.6001 25.5925 20.5957 25.6321 20.5936 25.6686C20.596 25.6985 20.5735 25.7319 20.5936 25.7582C20.5962 25.7619 20.5993 25.767 20.602 25.7707C20.6087 25.7804 20.6248 25.7727 20.6353 25.7749C20.6689 25.773 20.7039 25.778 20.7353 25.7645C20.816 25.7505 20.8974 25.7494 20.979 25.7457C21.029 25.7473 21.0771 25.7299 21.127 25.7311C21.1661 25.7398 21.1837 25.6974 21.1832 25.6666C21.1611 25.623 21.1802 25.5713 21.1624 25.527C21.1467 25.4821 21.1529 25.4318 21.1457 25.3853C21.1447 25.3487 21.0983 25.3352 21.0749 25.3624C21.0521 25.3854 21.0154 25.39 20.9978 25.4186C20.978 25.4588 21.0396 25.4588 21.0499 25.4895C21.0616 25.5204 21.0578 25.5548 21.0603 25.5874C21.0679 25.6269 21.025 25.6291 20.9978 25.6332C20.962 25.6466 20.9118 25.6556 20.8915 25.6124C20.8788 25.5804 20.8806 25.5462 20.877 25.5124C20.8761 25.4529 20.8618 25.3945 20.8582 25.3353C20.8548 25.2622 20.8422 25.1895 20.8374 25.1166C20.8367 25.0862 20.8327 25.0367 20.7895 25.0457V25.0457ZM20.7478 25.5957L20.7686 25.5978L20.7707 25.6228L20.7728 25.6478L20.7457 25.6561C20.7314 25.6604 20.7188 25.6624 20.7186 25.6624C20.7143 25.6598 20.7102 25.657 20.7061 25.654C20.6915 25.6435 20.6952 25.6284 20.7145 25.6082C20.7253 25.5969 20.7304 25.5947 20.7478 25.5957ZM18.7501 24.9771C18.7248 24.986 18.6926 25.0232 18.6668 25.0229C18.6081 25.027 18.6163 25.0842 18.6585 25.1041C18.664 25.1215 18.6588 25.1433 18.6605 25.1625C18.6687 25.2151 18.6355 25.2575 18.6418 25.3104C18.6389 25.3684 18.6213 25.4249 18.6189 25.4833C18.6024 25.5435 18.6022 25.6054 18.5918 25.6666C18.5849 25.7215 18.5452 25.7022 18.5105 25.6875C18.5103 25.6637 18.5087 25.6404 18.5085 25.6166C18.5229 25.5622 18.4791 25.5463 18.4355 25.5396C18.3898 25.5439 18.3674 25.5047 18.3772 25.4646C18.3969 25.4412 18.4463 25.4477 18.4772 25.4437C18.5426 25.4573 18.54 25.3696 18.5064 25.3396C18.4834 25.2972 18.4265 25.279 18.4105 25.2354C18.4169 25.1776 18.3786 25.1199 18.3314 25.0917C18.2588 25.0866 18.204 25.1492 18.1772 25.2104C18.147 25.2191 18.117 25.2282 18.0876 25.2396C18.0404 25.2514 17.973 25.3334 18.0376 25.3646C18.0739 25.3746 18.1843 25.3997 18.1355 25.45C18.1081 25.4971 18.0555 25.4979 18.0085 25.4854C17.9602 25.4854 17.9065 25.4619 17.9085 25.4062C17.8986 25.3562 17.9002 25.3024 17.8772 25.2562C17.8673 25.2003 17.8038 25.2134 17.8001 25.2645C17.7512 25.3002 17.7578 25.3577 17.7918 25.4C17.8131 25.4486 17.792 25.5051 17.771 25.55C17.7582 25.6083 17.6939 25.6103 17.6481 25.6291C17.6255 25.6379 17.5395 25.6239 17.571 25.6729C17.6212 25.6906 17.6812 25.7065 17.7335 25.6937C17.7883 25.6869 17.836 25.6494 17.8626 25.6021C17.8995 25.5647 17.9628 25.5843 18.0106 25.5833C18.0621 25.5832 18.1147 25.6195 18.1647 25.5958C18.1792 25.5582 18.2462 25.4961 18.2668 25.5604C18.2633 25.6179 18.3141 25.6488 18.3668 25.6416C18.4244 25.6384 18.4031 25.6824 18.4022 25.7166C18.406 25.7789 18.4462 25.8116 18.498 25.8375C18.5157 25.8422 18.5344 25.8406 18.5522 25.8375C18.6021 25.8218 18.6558 25.7996 18.671 25.7437C18.6912 25.6983 18.6917 25.647 18.7064 25.6C18.7182 25.5246 18.7334 25.4493 18.7356 25.3729C18.754 25.3037 18.7487 25.2305 18.7626 25.1604C18.7715 25.1083 18.778 25.0562 18.7835 25.0042C18.7774 24.9763 18.7653 24.9717 18.7501 24.9771ZM18.2981 25.2541C18.3082 25.2554 18.3138 25.2677 18.3147 25.2896C18.3158 25.3138 18.3285 25.3336 18.3439 25.3375C18.356 25.3405 18.355 25.3534 18.3418 25.3625C18.3341 25.3677 18.3204 25.3709 18.296 25.3708C18.2574 25.3706 18.2336 25.3606 18.2126 25.3395L18.2001 25.327L18.2189 25.3145C18.232 25.3042 18.2446 25.293 18.2564 25.2812C18.2754 25.2618 18.288 25.2529 18.2981 25.2541ZM22.7001 24.729C22.6623 24.7308 22.6243 24.7369 22.5897 24.7457C22.5204 24.7414 22.4856 24.8142 22.5522 24.8499C22.5923 24.9522 22.6549 24.8288 22.7189 24.8374C22.8147 24.856 22.8228 24.9595 22.8376 25.0374C22.843 25.1145 22.8653 25.1895 22.8876 25.2624C22.9518 25.3337 22.8396 25.3784 22.7918 25.3228C22.7511 25.2785 22.6638 25.2242 22.6147 25.2853C22.5545 25.3108 22.552 25.3913 22.5022 25.4145C22.4216 25.439 22.4115 25.3399 22.3689 25.2978C22.3297 25.2428 22.2549 25.238 22.1939 25.2186C22.1653 25.1607 22.1802 25.0623 22.121 25.0228C22.0712 25.0431 21.9801 25.1363 22.0564 25.179C22.1309 25.2431 22.0239 25.2724 21.9897 25.3165C21.9409 25.3709 21.9332 25.4456 21.9251 25.5145C21.8412 25.5608 21.8248 25.4619 21.8147 25.3999C21.8082 25.3258 21.7457 25.3475 21.7022 25.3749C21.6387 25.4006 21.607 25.4609 21.5626 25.5082C21.5573 25.5514 21.5651 25.5986 21.5647 25.6436C21.5791 25.6977 21.6449 25.6723 21.6856 25.6686C21.7508 25.6413 21.7775 25.7105 21.7251 25.7499C21.6897 25.795 21.5772 25.7714 21.5876 25.8436C21.6239 25.8479 21.6617 25.8465 21.698 25.8436C21.7707 25.8238 21.8488 25.7725 21.8564 25.6915C21.866 25.621 21.9676 25.6338 22.023 25.6186C22.0924 25.5986 22.176 25.5935 22.1918 25.6811C22.2391 25.7308 22.3417 25.7867 22.3939 25.7186C22.4468 25.6863 22.4723 25.6294 22.4689 25.5686C22.4581 25.5163 22.5535 25.5144 22.5772 25.5436C22.612 25.6008 22.7206 25.5839 22.773 25.552C22.8288 25.5108 22.8409 25.4383 22.921 25.4374C23.0398 25.4018 23.1632 25.3813 23.2793 25.3374C23.3733 25.3169 23.2653 25.2575 23.2418 25.2228C23.1702 25.1874 23.1079 25.3323 23.0272 25.2603C22.9648 25.2126 22.9691 25.1218 22.946 25.052C22.9301 24.9615 22.9341 24.8571 22.8689 24.7853C22.824 24.7376 22.7632 24.7261 22.7001 24.729ZM22.246 25.3603C22.2544 25.3601 22.2638 25.3642 22.2793 25.3728C22.3085 25.3889 22.3293 25.4157 22.3293 25.4374C22.3293 25.4516 22.3257 25.4525 22.3043 25.4624C22.2912 25.4684 22.2762 25.475 22.271 25.4749C22.2589 25.4748 22.2293 25.4511 22.2293 25.4415C22.2293 25.4376 22.2254 25.4224 22.221 25.4103C22.2131 25.3889 22.2143 25.3892 22.2251 25.3749C22.232 25.3657 22.2376 25.3605 22.246 25.3603ZM22.6814 25.3832C22.7062 25.3816 22.721 25.3893 22.7314 25.4082C22.7435 25.4301 22.7353 25.447 22.7043 25.4603C22.6907 25.4662 22.6772 25.4709 22.6751 25.4707C22.6731 25.4705 22.6619 25.4639 22.6501 25.4561C22.6321 25.4443 22.6295 25.4385 22.6293 25.4249C22.6291 25.4039 22.6526 25.3851 22.6814 25.3832ZM22.0855 25.3895C22.0928 25.3883 22.0994 25.3921 22.1085 25.3999C22.1205 25.4102 22.1243 25.4185 22.1272 25.4395C22.1293 25.4541 22.129 25.4729 22.1272 25.4811C22.124 25.4962 22.1237 25.4955 22.0897 25.4957C22.047 25.4961 22.0431 25.4915 22.0439 25.452C22.0444 25.4268 22.0447 25.4201 22.0585 25.4061C22.0692 25.3953 22.0783 25.3906 22.0855 25.3895ZM21.7189 25.4853C21.7322 25.4884 21.7447 25.4985 21.7481 25.5145C21.7524 25.5356 21.7486 25.5453 21.7314 25.554C21.7166 25.5616 21.6824 25.5641 21.673 25.5582C21.67 25.5563 21.6637 25.5513 21.6606 25.5457C21.656 25.5376 21.6569 25.5337 21.6626 25.529C21.6667 25.5258 21.671 25.5211 21.671 25.5186C21.6709 25.5162 21.6755 25.5078 21.6814 25.4999C21.6911 25.4869 21.7056 25.4822 21.7189 25.4853ZM22.3355 25.5645C22.3474 25.5644 22.3575 25.5685 22.3647 25.5749C22.3771 25.5857 22.3766 25.6016 22.3626 25.6124C22.3536 25.6193 22.3045 25.6187 22.2876 25.6124C22.2801 25.6096 22.2773 25.6058 22.2772 25.5978C22.2771 25.5884 22.2797 25.5826 22.296 25.5749C22.3096 25.5684 22.3237 25.5645 22.3355 25.5645ZM21.1908 25.8857C21.1844 25.8815 21.175 25.8779 21.1845 25.8709C21.196 25.8508 21.219 25.8438 21.2394 25.8363C21.276 25.8205 21.3075 25.7936 21.331 25.7617C21.3343 25.7395 21.3593 25.7275 21.3592 25.7043C21.3594 25.6726 21.3612 25.6402 21.3535 25.6092C21.345 25.5808 21.3234 25.5591 21.2984 25.5443C21.2813 25.5308 21.2535 25.5272 21.2472 25.5033C21.2437 25.4805 21.2641 25.4631 21.2712 25.4427C21.2861 25.4146 21.2986 25.3852 21.3146 25.3577C21.3319 25.3385 21.3585 25.3567 21.3675 25.3752C21.3801 25.3937 21.3913 25.4136 21.3975 25.435C21.4177 25.4572 21.4355 25.4831 21.4428 25.5125C21.4527 25.5332 21.4683 25.5527 21.4674 25.5769C21.4674 25.6047 21.4831 25.6294 21.4821 25.6573C21.483 25.6947 21.483 25.7337 21.4693 25.7689C21.46 25.7885 21.4413 25.8002 21.4289 25.8178C21.4076 25.8375 21.3842 25.8564 21.3569 25.8668C21.3376 25.873 21.3264 25.8952 21.3023 25.8898C21.268 25.8904 21.2332 25.8951 21.1991 25.8896C21.2013 25.8932 21.1887 25.8835 21.1908 25.8857V25.8857ZM20.7341 25.9157C20.718 25.8991 20.7145 25.892 20.7143 25.8757C20.7141 25.8592 20.7173 25.8526 20.7331 25.8366C20.7623 25.8071 20.7766 25.8064 20.827 25.8319C20.8752 25.8563 20.8915 25.8585 20.8958 25.8413C20.9 25.8246 20.9278 25.8093 20.9541 25.8092C20.9708 25.8091 20.9802 25.8124 20.9936 25.8228C21.0103 25.8359 21.0112 25.8379 21.0116 25.8681C21.0119 25.899 21.0114 25.9001 20.9922 25.9172C20.9737 25.9334 20.9708 25.9344 20.9479 25.9321C20.9187 25.9292 20.9012 25.9159 20.8965 25.8929C20.893 25.8762 20.8872 25.8723 20.8828 25.8836C20.8814 25.8872 20.8742 25.8917 20.8669 25.8936C20.8533 25.897 20.8303 25.9115 20.8139 25.9269C20.8077 25.9327 20.7969 25.9355 20.7793 25.9357C20.7556 25.9359 20.7524 25.9344 20.7341 25.9157ZM19.4128 25.3224C19.3685 25.3229 19.3208 25.3601 19.3149 25.4036C19.325 25.4538 19.3667 25.5029 19.3399 25.5557C19.3584 25.6232 19.2891 25.6489 19.242 25.6099C19.2135 25.5451 19.1991 25.4742 19.1566 25.4161C19.1029 25.401 19.0796 25.4866 19.042 25.5161C19.0606 25.5665 19.115 25.6116 19.1211 25.6745C19.1341 25.7355 19.097 25.8032 19.044 25.8349C18.9983 25.8785 18.9357 25.8629 18.8795 25.8724C18.8112 25.9123 18.9296 25.9269 18.9607 25.9286C19.0306 25.9357 19.1031 25.9265 19.1545 25.8745C19.2057 25.85 19.2018 25.7613 19.2628 25.7515C19.3687 25.7468 19.4736 25.7678 19.5795 25.7703C19.6361 25.7838 19.7237 25.7636 19.7628 25.8057C19.7629 25.8795 19.8255 25.9251 19.8857 25.9536C19.919 25.9629 19.954 25.9217 19.9878 25.914C20.0521 25.8935 20.0326 25.8139 20.0711 25.7828C20.1812 25.7768 20.2922 25.7781 20.4024 25.7765C20.4234 25.7771 20.4295 25.7472 20.4441 25.7349C20.4416 25.6923 20.4401 25.65 20.4336 25.6078C20.4124 25.554 20.4371 25.4848 20.3982 25.439C20.3429 25.424 20.2958 25.4746 20.2399 25.4786C20.1781 25.5061 20.1261 25.5632 20.1232 25.6328C20.0867 25.6926 20.028 25.6222 20.0482 25.5724C20.0459 25.5507 20.0529 25.5254 20.0461 25.5057C20.0123 25.4652 19.9532 25.4784 19.9066 25.4724C19.8386 25.4751 19.7724 25.4604 19.7045 25.462C19.6449 25.4575 19.583 25.4672 19.5253 25.4516C19.4565 25.4496 19.466 25.3823 19.4545 25.3349C19.4423 25.3258 19.4276 25.3222 19.4128 25.3224ZM19.5461 25.5682C19.569 25.5687 19.5906 25.5717 19.6128 25.5745C19.6415 25.5792 19.6721 25.5646 19.7003 25.5745C19.7654 25.5855 19.8305 25.5829 19.8961 25.589C19.9135 25.5888 19.9259 25.6014 19.9378 25.612C19.9379 25.6575 19.9379 25.7039 19.9378 25.7495C19.9358 25.7666 19.9429 25.7893 19.9274 25.8015C19.9224 25.805 19.9168 25.8087 19.9107 25.8099C19.8927 25.8052 19.8736 25.7933 19.8649 25.7765C19.8621 25.7527 19.8661 25.7296 19.867 25.7057C19.8665 25.6995 19.8697 25.6899 19.867 25.6849C19.8528 25.6748 19.8367 25.6683 19.8191 25.6682C19.7624 25.6663 19.7069 25.6621 19.6503 25.6599C19.6032 25.6569 19.5548 25.6639 19.5086 25.6515C19.4907 25.645 19.4675 25.6473 19.4566 25.6286C19.4409 25.6105 19.4635 25.5888 19.4795 25.5807C19.5007 25.5711 19.5233 25.5678 19.5461 25.5682L19.5461 25.5682ZM20.2982 25.5849C20.3088 25.5847 20.3122 25.5882 20.317 25.6078C20.32 25.6203 20.3236 25.6356 20.3253 25.6411C20.3277 25.649 20.3238 25.6515 20.3128 25.6557C20.2798 25.6681 20.2471 25.6669 20.2357 25.6515C20.2305 25.6446 20.2366 25.6226 20.2461 25.614C20.2654 25.5968 20.2868 25.5849 20.2982 25.5849Z" fill="#C09300"/>
<path d="M20.8231 16.8728C20.8676 16.8755 20.763 16.635 20.763 16.635C20.8806 16.7552 21.325 16.784 21.325 16.784C21.0583 16.6662 20.7918 15.7776 20.8231 15.0692C20.8519 14.3583 20.7212 14.0786 20.6166 13.974C20.4833 13.8407 20.0546 13.7231 19.7724 13.7074C19.6129 13.6996 19.639 13.8276 19.639 13.8276C19.3437 13.7518 19.0484 13.7231 18.915 13.812C18.7895 13.8956 18.7634 14.3138 18.8549 14.2406C19.077 14.0629 19.2705 14.225 19.4038 14.4184C19.5214 14.5883 19.5136 15.0692 19.3436 15.6312C19.1659 16.2219 18.6797 16.8126 18.6797 16.8126C18.9437 16.8126 19.3149 16.5774 19.3149 16.5774L19.226 16.946C19.5057 16.8126 19.7279 16.6062 19.7279 16.6062L19.9945 16.8858C20.0834 16.7682 20.2612 16.6062 20.2612 16.6062C20.2612 16.6062 20.4833 16.8414 20.8231 16.8728Z" fill="white" stroke="#C09300" stroke-width="0.0811999"/>
<path d="M19.7412 15.1717C19.7412 15.1717 19.5922 16.2669 19.3125 16.578M19.9765 15.1431C19.9765 15.1431 19.919 16.2513 19.7256 16.6068M20.1852 15.1877C20.1852 15.1877 20.1852 16.4005 20.2584 16.607M20.4492 15.2477C20.4492 15.2477 20.5093 16.2671 20.7602 16.6357" stroke="#C09300" stroke-width="0.0846665"/>
<path d="M19.473 14.641C19.4599 14.5443 19.4364 14.4684 19.4024 14.4188C19.269 14.2254 19.0757 14.0633 18.8535 14.241C18.8535 14.241 18.9293 14.0058 19.0914 13.998C19.2168 13.9901 19.5017 14.092 19.7527 14.5207C19.7527 14.5207 19.5671 14.4789 19.5227 14.5181C19.439 14.5913 19.473 14.641 19.473 14.641Z" fill="#C09300" stroke="#C09300" stroke-width="0.0236"/>
<path d="M18.8334 13.9509C18.8517 13.8908 18.8805 13.8359 18.9171 13.8124C19.0504 13.7235 19.3457 13.7523 19.6411 13.8281C19.6411 13.8281 19.6149 13.7 19.7744 13.7079C20.0567 13.7235 20.4853 13.8412 20.6186 13.9745C20.6499 14.0085 20.6866 14.0581 20.7179 14.1339H20.7127C20.6474 14.0424 20.4618 14.0477 20.4173 14.0529C20.3467 14.0607 20.3023 14.0581 20.2082 14.0816C20.1638 14.0921 20.0958 14.1051 20.0592 14.1339C20.0305 14.1574 20.0069 14.2437 19.9625 14.2437C19.8919 14.2437 19.8972 14.2254 19.8789 14.2045C19.8553 14.1757 19.8423 14.1339 19.8187 14.1365C19.7456 14.1496 19.6279 14.0921 19.479 13.9745C19.33 13.8568 19.2725 13.8281 19.0791 13.8411C18.8883 13.8568 18.8281 13.964 18.8281 13.964L18.8334 13.9509Z" fill="#C09300" stroke="#C09300" stroke-width="0.0236"/>
<path d="M19.9261 14.1236C19.9694 14.1236 20.0045 14.0885 20.0045 14.0452C20.0045 14.0019 19.9694 13.9668 19.9261 13.9668C19.8828 13.9668 19.8477 14.0019 19.8477 14.0452C19.8477 14.0885 19.8828 14.1236 19.9261 14.1236Z" fill="white"/>
<path d="M19.9967 21.8154C22.1729 20.1417 21.9863 17.6899 21.9863 17.6899C21.9289 17.7014 21.8743 17.7071 21.8169 17.7071C21.3604 17.7071 20.2717 17.446 20.0177 17.1143C19.7456 17.4145 18.633 17.7071 18.1794 17.7071C18.122 17.7071 18.0646 17.7014 18.01 17.6899C18.01 17.6899 17.8206 20.1416 19.9967 21.8154Z" fill="white" stroke="#C09300" stroke-width="0.0766669"/>
<path d="M21.8156 17.8695C21.7968 17.8707 21.778 17.8713 21.7591 17.8713C21.3454 17.8713 20.3845 17.659 20.014 17.3408C19.6261 17.6348 18.6493 17.8713 18.2423 17.8713C18.2232 17.8713 18.2044 17.869 18.1857 17.8655C18.1847 17.9583 18.1895 18.0544 18.1953 18.1418C18.2168 18.4685 18.2741 18.7964 18.3611 19.1119C18.635 20.1049 19.1955 20.9488 19.9993 21.5889C20.8037 20.9483 21.3649 20.1036 21.6394 19.1098C21.7265 18.7944 21.784 18.4665 21.8057 18.1398C21.8108 18.0484 21.8159 17.9364 21.8156 17.8695Z" stroke="#C09300" stroke-width="0.0610669"/>
<mask id="mask0_62_3447" style="mask-type:luminance" maskUnits="userSpaceOnUse" x="18" y="17" width="4" height="5">
<path d="M21.7984 17.8825C21.7799 17.8837 21.7613 17.8842 21.7425 17.8842C21.3332 17.8842 20.3825 17.6742 20.0161 17.3594C19.6322 17.6502 18.6659 17.8842 18.2632 17.8842C18.2443 17.8842 18.2257 17.882 18.2072 17.8785C18.2062 17.9702 18.211 18.0653 18.2167 18.1518C18.238 18.475 18.2947 18.7994 18.3808 19.1116C18.6517 20.094 19.2063 20.9289 20.0015 21.5622C20.7973 20.9284 21.3525 20.0927 21.6241 19.1096C21.7103 18.7975 21.7672 18.4731 21.7887 18.1499C21.7937 18.0594 21.7987 17.9486 21.7984 17.8825Z" fill="white"/>
</mask>
<g mask="url(#mask0_62_3447)">
<path fill-rule="evenodd" clip-rule="evenodd" d="M18.1777 17.3172H19.395V21.6045H18.1777V17.3172Z" fill="#C09300"/>
<path fill-rule="evenodd" clip-rule="evenodd" d="M19.3926 17.3172H20.6098V21.6045H19.3926V17.3172Z" fill="white"/>
<path fill-rule="evenodd" clip-rule="evenodd" d="M20.6133 17.3172H21.8305V21.6045H20.6133V17.3172Z" fill="#C09300"/>
</g>
</g>
<defs>
<clipPath id="clip0_62_3447">
<rect width="40" height="40" rx="20" fill="white"/>
</clipPath>
</defs>
</svg>
