<svg width="41" height="41" viewBox="0 0 41 41" fill="none" xmlns="http://www.w3.org/2000/svg">
<mask id="mask0_62_3626" style="mask-type:luminance" maskUnits="userSpaceOnUse" x="5" y="0" width="31" height="41">
<path d="M20.4998 41C28.5195 41 35.0207 31.8218 35.0207 20.5C35.0207 9.17816 28.5195 0 20.4998 0C12.4802 0 5.979 9.17816 5.979 20.5C5.979 31.8218 12.4802 41 20.4998 41Z" fill="white"/>
</mask>
<g mask="url(#mask0_62_3626)">
<path d="M41 0H0V41H41V0Z" fill="#024DA1"/>
<path d="M20.4917 4.90472L20.1601 6.45638L19.0776 6.45452L19.9558 7.40162L19.6265 8.93315L20.4917 7.98605L21.3569 8.93315L21.0287 7.40236L21.9063 6.45452H20.8233L20.4917 4.90472Z" fill="#FFF100"/>
<path d="M24.1119 10.739L24.9781 9.79043L25.8422 10.739L25.5135 9.20785L26.3922 8.25889H25.3079L24.9771 6.70872L24.646 8.26224L23.563 8.25889L24.4406 9.20785L24.1119 10.739Z" fill="#FFF100"/>
<path d="M28.2466 14.6951L29.1118 15.6419L28.782 14.1107L29.6607 13.1651H28.5787L28.2466 11.6134L27.9147 13.167L26.8325 13.1651L27.7114 14.1107L27.3814 15.6419L28.2466 14.6951Z" fill="#FFF100"/>
<path d="M29.4346 21.402L30.2998 22.351L29.9711 20.8194L30.8497 19.8723H29.7667L29.4346 18.3207L29.1035 19.8742L28.0205 19.8723L28.8992 20.8194L28.5705 22.351L29.4346 21.402Z" fill="#FFF100"/>
<path d="M28.2466 25.0667L28.5787 26.6183H29.6607L28.782 27.5654L29.1118 29.097L28.2466 28.1484L27.3814 29.097L27.7114 27.5654L26.8325 26.6183L27.9147 26.6202L28.2466 25.0667Z" fill="#FFF100"/>
<path d="M24.9644 29.9915L25.2952 31.5417H26.3784L25.4995 32.4888L25.8295 34.0199L24.9644 33.0732L24.0992 34.0199L24.4279 32.4888L23.5503 31.5417L24.6322 31.5432L24.9644 29.9915Z" fill="#FFF100"/>
<path d="M20.5 31.7746L20.8308 33.3248H21.9141L21.0354 34.2715L21.3652 35.8031L20.5 34.8563L19.6348 35.8031L19.9635 34.2715L19.0859 33.3248L20.1679 33.3263L20.5 31.7746Z" fill="#FFF100"/>
<path d="M16.021 29.9915L16.3518 31.5417H17.4351L16.5562 32.4888L16.8862 34.0199L16.021 33.0732L15.1558 34.0199L15.4845 32.4888L14.6069 31.5417L15.6889 31.5432L16.021 29.9915Z" fill="#FFF100"/>
<path d="M12.7388 25.0674L13.0696 26.6176H14.1528L13.2742 27.5647L13.604 29.0962L12.7388 28.1491L11.8736 29.0962L12.2023 27.5647L11.3247 26.6176L12.4066 26.6191L12.7388 25.0674Z" fill="#FFF100"/>
<path d="M11.5366 18.34L11.8677 19.8902H12.9507L12.072 20.8369L12.4018 22.3685L11.5366 21.4218L10.6714 22.3685L11.0001 20.8369L10.1226 19.8902L11.2045 19.8917L11.5366 18.34Z" fill="#FFF100"/>
<path d="M12.7388 11.6328L13.0696 13.183H14.1528L13.2742 14.1301L13.604 15.6616L12.7388 14.7145L11.8736 15.6616L12.2023 14.1301L11.3247 13.183L12.4066 13.1848L12.7388 11.6328Z" fill="#FFF100"/>
<path d="M16.0142 6.70797L16.345 8.25814H17.4282L16.5496 9.20524L16.8793 10.7368L16.0142 9.78968L15.149 10.7368L15.4777 9.20524L14.6001 8.25814L15.682 8.25963L16.0142 6.70797Z" fill="#FFF100"/>
</g>
</svg>
