<svg width="40" height="38" viewBox="0 0 40 38" fill="none" xmlns="http://www.w3.org/2000/svg">
<g clip-path="url(#clip0_62_3582)">
<path d="M-10 0H50V38H-10V0Z" fill="#006C35"/>
<path d="M27.6215 26.125C27.5231 26.125 27.2569 26.3833 27.2569 26.4768C27.2569 26.5483 27.39 26.6912 27.5 26.7737V26.9882H8.75C9.41551 27.6204 10.4051 27.6368 12.3958 27.6368H27.5V27.8513C27.3843 27.9393 27.2569 28.0767 27.2569 28.1482C27.2569 28.2417 27.5231 28.5 27.6215 28.5C27.7025 28.5 27.8473 28.3626 27.9398 28.2472H28.7732C28.7993 28.2875 28.8438 28.322 28.901 28.3462C28.9582 28.3705 29.0255 28.3835 29.0943 28.3835C29.1632 28.3835 29.2305 28.3705 29.2876 28.3462C29.3448 28.322 29.3893 28.2875 29.4155 28.2472H30.4051C30.5266 28.3791 30.6886 28.3846 30.787 28.3846C31.0705 28.3846 31.25 28.2691 31.25 27.6368C31.25 27.0431 30.9722 26.9882 30.2893 26.9882H27.7431V26.7737C27.8531 26.6912 27.9861 26.5483 27.9861 26.4768C27.9861 26.3833 27.7199 26.125 27.6215 26.125ZM27.7431 27.6368H30.2893C30.243 27.8018 30.243 27.9283 30.2893 28.0492H29.4155C29.3893 28.0089 29.3448 27.9744 29.2876 27.9502C29.2305 27.9259 29.1632 27.9129 29.0943 27.9129C29.0255 27.9129 28.9582 27.9259 28.901 27.9502C28.8438 27.9744 28.7993 28.0089 28.7732 28.0492H27.9398C27.8935 27.9888 27.8068 27.8953 27.7431 27.8513V27.6368Z" fill="white"/>
<path d="M32.4733 10.3663C32.8317 10.0834 33.1793 9.79277 33.5238 9.5C33.539 9.76312 33.359 10.005 33.158 10.2106C33.0503 10.3301 32.8985 10.4195 32.762 10.5189C32.6966 10.5634 32.6332 10.6093 32.5704 10.6556C32.5885 10.726 32.616 10.7953 32.6261 10.8667C32.6209 10.933 32.6067 10.9989 32.5962 11.0649C32.5189 10.9737 32.4637 10.872 32.3753 10.7866C32.4142 11.0851 32.4331 11.3848 32.4596 11.684C32.5287 12.5626 32.592 13.4413 32.6516 14.3202C32.6481 14.3429 32.6745 14.3573 32.6915 14.3733C32.9466 14.5865 33.2006 14.8005 33.4393 15.0242C33.6269 15.2118 33.8044 15.4058 33.955 15.6117C34.1522 15.8813 34.3084 16.1733 34.3545 16.4811C34.3795 16.6746 34.3671 16.8744 34.2833 17.0597C34.199 16.594 33.9334 16.1526 33.5574 15.7792C33.5494 15.7783 33.5329 15.7764 33.5248 15.7756C33.529 15.7727 33.5378 15.7669 33.542 15.764C33.2756 15.4912 32.9893 15.2295 32.6952 14.9733C32.7157 15.2867 32.7362 15.6001 32.7522 15.9136C32.7678 16.3179 32.748 16.7224 32.7252 17.1264C32.7253 17.203 32.6794 17.2729 32.6558 17.346C32.5872 17.5102 32.532 17.6783 32.4442 17.8375C32.4302 17.4644 32.4133 17.0908 32.3834 16.7181C32.3295 16.0505 32.2729 15.3831 32.2221 14.7155C32.2146 14.6629 32.2184 14.6093 32.2051 14.5576C32.0116 14.3875 31.8026 14.2276 31.6005 14.0634C31.2445 13.7838 30.8848 13.5069 30.5114 13.2405C30.5823 13.9379 30.6555 14.6351 30.7218 15.3328C30.7502 15.6495 30.7877 15.9663 30.7917 16.2839C30.7968 16.5602 30.7931 16.8367 30.7849 17.1128C30.7859 17.2871 30.7891 17.4673 30.7069 17.633C30.5852 17.8383 30.367 18.0097 30.1039 18.1155C29.8985 18.1975 29.6662 18.2411 29.4338 18.2425C29.2769 18.2452 29.1209 18.2138 28.9822 18.1599C28.7394 18.057 28.5663 17.8815 28.4548 17.6926C28.3784 17.5625 28.3235 17.4251 28.2939 17.2845C28.2767 17.223 28.2585 17.1518 28.1854 17.1134C28.1272 17.0838 28.0576 17.1074 28.0013 17.1272C27.8644 17.182 27.7326 17.2482 27.6335 17.3392C27.311 17.6309 27.1576 18.0033 27.0616 18.3697C27.0146 18.5278 26.9401 18.685 26.8093 18.8155C26.7145 18.9086 26.5786 18.9891 26.4188 19C26.2935 18.9933 26.1722 18.9617 26.0602 18.92C25.8123 18.8217 25.6379 18.6425 25.538 18.4491C25.5082 18.3988 25.4943 18.344 25.464 18.294C25.4589 18.2934 25.4489 18.2923 25.4438 18.2917C25.4487 18.2893 25.4585 18.2844 25.4633 18.2819C25.3607 17.9865 25.3457 17.6781 25.3681 17.3745C25.379 17.3451 25.3385 17.3344 25.3162 17.3181C25.2279 17.2612 25.1918 17.1708 25.193 17.0857C25.1905 16.7733 25.2508 16.4555 25.4258 16.1697C25.5676 15.934 25.78 15.7282 25.9869 15.5232C26.0063 15.501 26.0407 15.4834 26.0502 15.4576C25.9213 15.347 25.7853 15.2411 25.6479 15.1366C25.5695 15.0685 25.4742 15.0131 25.397 14.9443C25.1071 14.7081 24.8221 14.4686 24.5372 14.2289C24.5644 14.5795 24.5851 14.9304 24.6084 15.2812C24.6261 15.6062 24.6561 15.9309 24.6499 16.2563C24.6512 16.5463 24.6338 16.836 24.618 17.1256C24.6172 17.1978 24.5784 17.265 24.5539 17.3338C24.4848 17.5034 24.4224 17.6749 24.3386 17.8409C24.323 17.7036 24.3325 17.5654 24.3209 17.428C24.2892 16.7425 24.2179 16.0585 24.1672 15.3737C24.1241 14.8499 24.086 14.3256 24.0401 13.802C23.8503 13.6249 23.6499 13.4535 23.4622 13.2747C23.2424 13.0663 23.0227 12.8564 22.8387 12.6288C22.5745 12.2715 22.2779 11.9246 21.9118 11.621C21.8909 11.6063 21.8974 11.5843 21.8976 11.5654C21.9102 11.369 21.9202 11.1725 21.9331 10.9761C22.1938 11.1036 22.4424 11.245 22.6813 11.3948C22.8664 11.5148 23.0426 11.6435 23.1924 11.7891C23.2697 11.8579 23.3411 11.9457 23.3151 12.0396C23.2271 12.0134 23.1362 11.9924 23.0529 11.9584C23.0194 11.9446 22.983 11.9358 22.9455 11.9316C22.94 11.9865 22.9898 12.0299 23.0271 12.0731C23.2987 12.372 23.5819 12.6647 23.8726 12.9532C23.9099 12.9902 23.9511 13.0256 23.9798 13.0672C23.9614 12.7288 23.9271 12.3909 23.9027 12.0527C23.8615 11.5304 23.8193 11.0082 23.7781 10.4859C23.7705 10.4079 23.7756 10.3274 23.7339 10.254C23.7137 10.2248 23.7435 10.198 23.76 10.1727C23.8598 10.0278 23.9562 9.88143 24.0508 9.73439C24.0554 9.72411 24.0773 9.69763 24.0839 9.72306C24.2633 10.0734 24.4028 10.4352 24.5059 10.8024C24.5376 10.8903 24.4985 10.9799 24.4868 11.0678C24.4198 10.9683 24.3439 10.8725 24.2696 10.7761C24.3648 11.6932 24.42 12.6126 24.4913 13.5309C24.5395 13.5917 24.6135 13.6399 24.6724 13.6956C25.2412 14.1886 25.8318 14.667 26.422 15.1454C26.8605 14.7794 27.3035 14.4163 27.748 14.0543C27.7673 14.0409 27.7805 14.0244 27.7736 14.004C27.6399 12.8623 27.506 11.7205 27.372 10.5788C27.355 10.4634 27.3596 10.3446 27.3019 10.2349C27.4115 10.058 27.5315 9.8846 27.6404 9.70725C27.7 9.8004 27.741 9.89988 27.788 9.99712C27.8984 10.2394 27.994 10.4857 28.0695 10.7354C28.0853 10.7916 28.1112 10.8484 28.1009 10.9066C28.093 10.9592 28.0833 11.0117 28.0758 11.0644C28.0025 10.9713 27.9323 10.877 27.8585 10.7842C27.8478 10.7873 27.8376 10.7904 27.8278 10.7936C27.8383 10.7956 27.8492 10.7974 27.8604 10.7991C27.9717 11.7702 28.0555 12.7433 28.1647 13.7148C28.6255 13.3468 29.0827 12.976 29.5456 12.6096C29.5964 12.5661 29.6543 12.5273 29.7011 12.4811C29.4758 12.2536 29.2657 12.0179 29.056 11.7822C28.9831 11.7046 28.9265 11.6195 28.8569 11.5403C28.7103 11.3695 28.5607 11.1968 28.3594 11.0591C28.3419 10.8372 28.3324 10.6148 28.3198 10.3925C28.7924 10.7029 29.2725 11.0073 29.7318 11.3291C29.7758 11.3587 29.8108 11.3951 29.8353 11.4356C29.794 11.0885 29.7561 10.7411 29.717 10.3938C29.7123 10.3619 29.7137 10.3288 29.696 10.299C29.6842 10.2684 29.6518 10.2357 29.6781 10.2045C29.7868 10.0365 29.8893 9.86628 29.9968 9.69776C30.1849 10.0324 30.3314 10.38 30.4475 10.7326C30.4594 10.7821 30.4881 10.8307 30.4794 10.8819C30.4708 10.9383 30.4657 10.9949 30.4571 11.0513C30.3907 10.9683 30.3242 10.8853 30.2585 10.8021C30.2471 10.789 30.2364 10.7758 30.2268 10.7624C30.2867 11.1596 30.3263 11.5584 30.3731 11.9566C30.7193 11.6804 31.0748 11.411 31.4329 11.1434C31.5924 11.03 31.7579 10.9211 31.9108 10.8024C31.8964 10.6483 31.8881 10.4938 31.872 10.3398C31.869 10.2909 31.8093 10.2417 31.8512 10.1949C31.9642 10.0333 32.0713 9.86931 32.1768 9.70474C32.3004 9.9182 32.3839 10.1438 32.4733 10.3663ZM30.4112 12.3016C30.4166 12.3639 30.4236 12.4262 30.4312 12.4884C30.5437 12.5929 30.658 12.6964 30.7768 12.797C31.2299 13.1814 31.6987 13.5552 32.1585 13.9351C32.0873 12.9955 32.0074 12.0561 31.9367 11.1164C31.418 11.504 30.9094 11.899 30.4112 12.3016ZM29.4326 11.4494C29.5779 11.6201 29.7291 11.7884 29.8904 11.9508C29.8774 11.8002 29.858 11.6498 29.8404 11.4994C29.8317 11.5127 29.8222 11.526 29.8149 11.5396C29.7053 11.4795 29.5715 11.4324 29.4326 11.4494ZM28.5011 13.8798C28.4071 13.9629 28.3025 14.0396 28.2141 14.126C28.235 14.3924 28.2802 14.6582 28.3081 14.9245C28.3217 15.3647 28.2245 15.8319 27.8644 16.1921C27.8748 16.1348 27.8698 16.0768 27.8707 16.0191C27.8702 15.8216 27.8705 15.6241 27.8705 15.4265C27.8681 15.2371 27.8807 15.0478 27.8735 14.8584C27.8634 14.7617 27.8502 14.665 27.8402 14.5683C27.8357 14.5528 27.8416 14.5252 27.8124 14.5244C27.8355 14.5027 27.8304 14.4757 27.825 14.4501C27.6993 14.55 27.5796 14.6541 27.4542 14.7542C27.2076 14.9613 26.9454 15.1574 26.6926 15.3602C26.9494 15.5681 27.1105 15.8418 27.152 16.1233C27.1939 16.4228 27.0947 16.7413 26.8332 16.9741C26.6025 17.1782 26.2716 17.307 25.9278 17.3663C25.7666 17.3932 25.5943 17.4117 25.4342 17.3711C25.4542 17.4968 25.4793 17.6221 25.5127 17.7462C25.5702 17.9554 25.6451 18.1666 25.7936 18.351C25.873 18.4452 25.9818 18.5365 26.1315 18.5641C26.2916 18.5934 26.4544 18.5331 26.5669 18.4503C26.6672 18.3827 26.7137 18.2847 26.7559 18.1914C26.883 17.9167 26.9259 17.6216 27.094 17.3574C27.212 17.1478 27.3619 16.9443 27.5782 16.7828C27.6904 16.695 27.8194 16.6202 27.9545 16.5535C28.0476 16.5116 28.1603 16.4767 28.2699 16.5012C28.3742 16.5243 28.4445 16.5934 28.4927 16.6631C28.6024 16.8201 28.631 16.9995 28.7198 17.1626C28.7849 17.2974 28.8711 17.4343 29.0243 17.5252C29.1791 17.6171 29.3831 17.6451 29.5761 17.6391C29.913 17.6281 30.2296 17.5144 30.4952 17.3636C30.4715 17.1043 30.4466 16.8451 30.4173 16.5861C30.2699 15.3209 30.1304 14.0553 29.987 12.79C29.9821 12.7552 29.9405 12.7316 29.92 12.7021C29.4385 13.0888 28.9717 13.4857 28.5011 13.8798ZM26.3057 15.695C26.2049 15.7825 26.1098 15.8738 26.0149 15.965C25.8346 16.1478 25.654 16.3328 25.5205 16.5378C25.4868 16.5899 25.4561 16.6548 25.4949 16.7102C25.5406 16.7668 25.6384 16.7753 25.7187 16.7754C26.0731 16.7647 26.4037 16.6455 26.6916 16.4966C26.7878 16.4609 26.8782 16.3818 26.842 16.2961C26.7943 16.1808 26.704 16.0791 26.6157 15.9793C26.524 15.8813 26.4274 15.7855 26.3245 15.6939C26.3198 15.6942 26.3105 15.6947 26.3057 15.695Z" fill="white"/>
<path d="M34.0256 10.1833C34.1309 9.99544 34.2284 9.80532 34.335 9.61782C34.4983 10.0225 34.6578 10.4283 34.7911 10.8391C34.8111 10.9098 34.8372 10.9801 34.847 11.0521C34.8331 11.1092 34.81 11.1652 34.8081 11.2238C34.7499 11.1395 34.6913 11.0554 34.6323 10.9716C34.7066 12.0227 34.7963 13.0732 34.8966 14.1231C34.9276 14.4608 34.973 14.7979 34.9895 15.1362C35.0197 15.763 34.9906 16.4033 34.7373 17.0059C34.6421 17.2237 34.521 17.4359 34.3671 17.6341C34.1602 17.8902 33.8531 18.0922 33.5153 18.2474C32.9137 18.5195 32.2252 18.661 31.5377 18.7484C31.4988 18.759 31.483 18.725 31.4609 18.7096C32.0743 18.4876 32.6639 18.2267 33.2144 17.9253C33.4896 17.7703 33.759 17.6071 33.9905 17.4152C34.2559 17.1906 34.4561 16.9201 34.5471 16.6265C34.6468 16.3314 34.6125 16.0243 34.5906 15.7239C34.5331 15.0314 34.4619 14.3395 34.4012 13.6471C34.3078 12.5801 34.2137 11.513 34.1201 10.446C34.1003 10.3711 34.038 10.3068 34.0093 10.2338C34.0016 10.2159 34.0195 10.1998 34.0256 10.1833Z" fill="white"/>
<path d="M7.98786 10.1802C8.1074 10.0061 8.22222 9.83017 8.33879 9.65493C8.5281 10.0266 8.67797 10.4098 8.78192 10.8C8.78875 10.8711 8.76299 10.9418 8.75458 11.0124C8.66904 10.9255 8.61768 10.8207 8.53056 10.7339C8.57807 11.0271 8.59508 11.3226 8.6261 11.6169C8.66063 11.9976 8.69323 12.3784 8.72566 12.7591C8.98526 12.7265 9.21857 12.6112 9.37527 12.4539C9.61103 12.2183 9.71568 11.9218 9.74531 11.6317C9.74337 11.2589 9.71691 10.8797 9.56108 10.523C9.53356 10.45 9.4829 10.3793 9.48394 10.302C9.50253 10.1582 9.5665 10.0204 9.63417 9.88616C9.65134 9.85481 9.66256 9.81489 9.71304 9.80553C9.79 9.98433 9.86957 10.163 9.92076 10.3472C10.0002 10.6357 10.0386 10.9296 10.0827 11.2221C10.1122 11.3991 10.1209 11.5791 10.1805 11.7526C10.2578 11.986 10.4146 12.2134 10.6726 12.3618C10.8666 12.4724 11.1145 12.5482 11.3613 12.5188C11.5353 12.4952 11.7115 12.4432 11.8333 12.3433C11.8884 12.299 11.9262 12.2342 11.9028 12.1736C11.6535 11.6913 11.45 11.1965 11.2442 10.7029C11.1739 10.5313 11.1048 10.3592 11.0359 10.1872C11.0163 10.1436 11.0419 10.0987 11.0514 10.0556C11.0947 9.92411 11.1508 9.7938 11.2282 9.67153C11.3126 9.70196 11.3673 9.76218 11.4223 9.81659C11.5883 9.99631 11.7206 10.1921 11.8423 10.3904C11.8365 10.4157 11.8309 10.4411 11.8263 10.4667C11.7646 10.4091 11.6854 10.3575 11.5862 10.3428C11.5704 10.371 11.5711 10.4019 11.5848 10.4305C11.6952 10.6815 11.813 10.9306 11.9254 11.1811C12.0209 11.4044 12.1168 11.6317 12.1292 11.8678C12.1387 12.06 12.0989 12.2527 12.0263 12.4367C12.0169 12.4527 12.0149 12.484 11.9828 12.4801C12.0105 12.4952 11.985 12.5197 11.9783 12.5387C11.8921 12.7001 11.758 12.8568 11.5534 12.9455C11.3779 13.0248 11.1613 13.037 10.9635 13.0078C10.7032 12.9686 10.4799 12.8422 10.3201 12.6864C10.0953 12.4669 9.95738 12.2031 9.8757 11.9349C9.86343 11.9351 9.83889 11.9359 9.82662 11.9363C9.75019 12.2062 9.63398 12.4719 9.45448 12.7134C9.29357 12.9294 9.07113 13.1335 8.76436 13.2365C8.818 13.9047 8.8741 14.5727 8.91248 15.2415C8.91809 15.5713 8.90038 15.9009 8.87865 16.2303C8.87829 16.2751 8.8534 16.3166 8.83483 16.3585C8.7747 16.5015 8.71108 16.6436 8.64342 16.7849C8.63273 16.8085 8.61888 16.8315 8.59907 16.8518C8.59031 16.2221 8.51931 15.5941 8.4627 14.9661C8.41134 14.4131 8.35999 13.8601 8.31003 13.3071C8.06445 13.303 7.81151 13.249 7.63026 13.1194C7.41904 12.9733 7.31123 12.7626 7.2597 12.5547C7.21413 12.3705 7.20448 12.1817 7.2236 11.9952C7.26567 11.7517 7.34858 11.5136 7.42763 11.2757C7.43849 11.2331 7.44639 11.1885 7.4336 11.1456C7.42869 11.1301 7.42395 11.1117 7.39994 11.1073C7.36313 11.1037 7.33578 11.1244 7.31089 11.1412C7.17311 11.2413 7.08302 11.3708 7.00431 11.5005C6.85515 11.7683 6.76733 12.0538 6.71947 12.3415C6.67985 12.5311 6.622 12.7199 6.52735 12.8987C6.45215 13.0315 6.35838 13.1682 6.19536 13.2515C6.05617 13.3236 5.87212 13.3148 5.7198 13.2734C5.52698 13.2196 5.38973 13.0897 5.31681 12.949C5.19008 12.7071 5.18184 12.4423 5.18956 12.1857C5.20762 11.885 5.26441 11.586 5.35188 11.2924C5.36835 11.2898 5.38501 11.2873 5.40148 11.2849C5.33067 11.6217 5.273 11.9632 5.30648 12.3046C5.32278 12.4525 5.35784 12.6019 5.44198 12.7374C5.5135 12.8531 5.63901 12.957 5.80518 12.9948C5.94646 13.0275 6.11387 13.0249 6.23411 12.9535C6.36488 12.8748 6.42676 12.7519 6.4746 12.6351C6.58714 12.3393 6.62938 12.0312 6.74595 11.7362C6.85901 11.447 7.01274 11.1664 7.20292 10.9011C7.31319 10.7635 7.43238 10.629 7.57086 10.5065C7.61187 10.4743 7.65306 10.4286 7.71828 10.4281C7.75403 10.4453 7.74125 10.4831 7.74212 10.5102C7.72388 10.6432 7.72213 10.7793 7.66919 10.9081C7.57243 11.1722 7.50722 11.4422 7.43623 11.7107C7.38698 11.9198 7.37383 12.1432 7.48022 12.3437C7.55858 12.4967 7.7216 12.6208 7.91827 12.6898C8.02519 12.7278 8.14072 12.751 8.25763 12.7636C8.19312 12.0176 8.11986 11.272 8.05307 10.526C8.03781 10.4099 8.04799 10.2901 7.98786 10.1802Z" fill="white"/>
<path d="M22.1914 9.83352C22.241 9.77159 22.2884 9.70321 22.373 9.66421C22.25 9.84946 22.1245 10.0379 22.0691 10.2424C22.0475 10.3308 22.0402 10.4384 22.1367 10.5047C22.1928 10.5252 22.2575 10.5375 22.3187 10.5213C22.4305 10.5025 22.4828 10.415 22.5264 10.3441C22.5385 10.3725 22.5466 10.4021 22.5336 10.4313C22.4938 10.5544 22.4409 10.6832 22.3211 10.7764C22.1863 10.8849 21.9145 10.8225 21.8631 10.6834C21.8181 10.5571 21.8593 10.4249 21.9087 10.3028C21.9806 10.1395 22.0801 9.98359 22.1914 9.83352Z" fill="white"/>
<path d="M12.2012 10.2201C12.3074 10.0398 12.4134 9.85947 12.5219 9.68002C12.7318 10.0429 12.9025 10.4184 13.0304 10.8022C13.0455 10.8798 13.015 10.9578 13.0187 11.0358C12.9454 10.938 12.8613 10.8451 12.7845 10.749C12.8043 10.925 12.8403 11.1001 12.862 11.2761C13.0089 12.3158 13.1381 13.357 13.2483 14.3993C13.3747 14.3305 13.4711 14.2318 13.5253 14.1221C13.5959 13.9985 13.6722 13.8756 13.7754 13.7652C13.8142 13.7255 13.8653 13.6746 13.9404 13.6869C13.9828 13.6887 14.0029 13.723 14.0072 13.7508C14.0259 13.8487 13.9274 13.9332 13.9442 14.0303C13.9488 14.11 14.0317 14.1784 14.1302 14.2025C14.3006 14.2487 14.4857 14.228 14.6605 14.2095C14.7393 14.1964 14.8378 14.1852 14.8762 14.1237C14.8352 14.0249 14.7896 13.9271 14.7379 13.8312C14.8117 13.6898 14.896 13.5514 14.973 13.4109C14.9928 13.3777 15.0061 13.341 15.0387 13.3131C15.0946 13.4738 15.1087 13.6406 15.1313 13.8053C15.1546 14.0716 15.0978 14.3481 14.9211 14.5823C14.8259 14.7022 14.6838 14.8112 14.4983 14.8458C14.3367 14.875 14.1591 14.8616 14.0126 14.801C13.8429 14.7284 13.7265 14.6009 13.666 14.4635C13.5742 14.6221 13.4534 14.7721 13.2997 14.901C13.3176 15.1068 13.3375 15.3125 13.3512 15.5185C13.3614 15.7481 13.283 15.9731 13.1924 16.1906C13.1484 16.284 13.1051 16.3779 13.0508 16.4683C12.5677 17.0617 11.9291 17.5874 11.1629 17.98C10.6614 18.2389 10.1066 18.4397 9.52414 18.5715C9.21966 18.6379 8.90835 18.6921 8.59161 18.7095C8.26469 18.7129 7.93287 18.6812 7.62734 18.591C7.34057 18.507 7.09009 18.3539 6.92934 18.156C6.36455 18.1999 5.79645 18.224 5.22852 18.225C5.73511 18.0885 6.2366 17.9411 6.72969 17.7788C6.59805 17.2961 6.70689 16.7985 6.8715 16.3284C6.97229 16.0434 7.10236 15.7647 7.24837 15.4912C7.34443 15.2906 7.43978 15.0851 7.60298 14.9092C7.50727 15.0594 7.40753 15.209 7.32866 15.3646L7.33304 15.373C7.33514 15.3752 7.33952 15.3798 7.3418 15.3821C7.33654 15.381 7.32585 15.3788 7.32059 15.3777C7.28711 15.4267 7.25854 15.4777 7.23943 15.531C7.10621 15.8515 7.02137 16.1836 6.99315 16.5189C6.96528 16.8875 7.00051 17.2747 7.22908 17.6083C7.8368 17.3947 8.4284 17.1546 8.99565 16.8853C9.47664 16.6537 9.94133 16.401 10.3636 16.1112C10.5638 15.9721 10.7583 15.8269 10.9228 15.663C10.9713 15.62 10.9477 15.5588 10.9319 15.5099C10.8953 15.4278 10.8537 15.347 10.8115 15.2667C10.524 15.3542 10.2178 15.4141 9.90592 15.4131C9.7359 15.4167 9.56096 15.3924 9.41442 15.325C9.28873 15.2668 9.19549 15.1711 9.15762 15.0639C9.10522 14.9232 9.128 14.7747 9.15938 14.6328C9.20916 14.4274 9.30978 14.222 9.50102 14.0665C9.63529 13.9579 9.81303 13.8744 10.0101 13.8525C10.2329 13.8533 10.4427 13.935 10.6017 14.0484C10.8041 14.1927 10.9422 14.3798 11.0485 14.5718C11.2467 14.4849 11.4373 14.3822 11.5848 14.2487C11.7296 14.1355 11.8786 14.02 12.0636 13.9439C12.1097 13.924 12.1892 13.902 12.2199 13.9486C12.2534 14.0176 12.2215 14.0935 12.199 14.1621C12.1394 14.2623 12.2115 14.3761 12.3005 14.4527C12.4245 14.5578 12.6282 14.5679 12.8008 14.5444C12.6199 13.1471 12.436 11.7499 12.255 10.3526C12.2513 10.3057 12.2243 10.2629 12.2012 10.2201ZM9.73765 14.5108C9.64896 14.5395 9.538 14.5821 9.52485 14.6623C9.54571 14.7233 9.64107 14.7422 9.71276 14.7552C9.94327 14.7888 10.1829 14.7881 10.4132 14.7541C10.409 14.748 10.4002 14.7357 10.3959 14.7295C10.2758 14.6273 10.1228 14.5393 9.94081 14.5134C9.87403 14.5059 9.80303 14.4916 9.73765 14.5108ZM11.2471 15.0816C11.2709 15.3663 11.2178 15.6542 11.0984 15.9247C11.0523 16.0186 11.0139 16.1181 10.927 16.1964C10.4995 16.6259 9.94871 16.9768 9.36833 17.2848C8.85123 17.5556 8.3052 17.7958 7.73446 17.9964C7.83193 18.0321 7.93429 18.0609 8.0407 18.0779C8.32572 18.1254 8.62003 18.0999 8.90558 18.0689C9.79955 17.9682 10.6413 17.675 11.3663 17.2741C11.8469 17.0084 12.2848 16.6989 12.6669 16.3543C12.7947 16.2326 12.9519 16.1136 12.9831 15.9534C12.9526 15.6816 12.9123 15.4104 12.8787 15.1387C12.6799 15.1987 12.4338 15.2128 12.2534 15.1127C12.0345 14.9884 11.9512 14.7764 11.9167 14.5806C11.7279 14.7713 11.5058 14.9441 11.2471 15.0816Z" fill="white"/>
<path d="M20.8854 9.70364C20.9766 9.73922 21.0362 9.80417 21.0949 9.86505C21.2381 10.0226 21.3557 10.1925 21.4649 10.3644C21.4835 10.3897 21.49 10.4216 21.5233 10.4394C21.5126 10.4408 21.5021 10.442 21.4921 10.4431C21.4909 10.4568 21.4888 10.4843 21.4877 10.498C21.4218 10.4441 21.3447 10.3921 21.2467 10.3763C21.2294 10.4051 21.2295 10.4362 21.2443 10.4657C21.3715 10.7592 21.5154 11.0485 21.6387 11.343C21.7172 11.5349 21.7861 11.7322 21.7887 11.9343C21.7941 12.1219 21.7516 12.3093 21.6779 12.4882C21.604 12.6563 21.4906 12.823 21.3014 12.9339C21.1458 13.0289 20.938 13.0683 20.74 13.0544C20.4982 13.0408 20.2693 12.9532 20.1016 12.823C20.012 12.7588 19.9392 12.6831 19.8711 12.6059L19.8972 12.6013C19.89 12.6019 19.8758 12.6032 19.8686 12.6039C19.7172 12.412 19.6048 12.2027 19.5399 11.9849C19.5457 11.9567 19.4742 11.9591 19.4814 11.9871C19.389 12.3048 19.2416 12.6181 18.9976 12.8887C18.8551 13.0442 18.6707 13.183 18.4419 13.265C18.1927 13.3535 17.8991 13.3592 17.6367 13.3026C17.373 13.2454 17.1641 13.0889 17.0508 12.9044C16.8868 12.6401 16.8617 12.3409 16.8798 12.0535C16.915 11.8214 16.9921 11.5943 17.0675 11.3681C17.0929 11.2986 17.1155 11.2237 17.0827 11.1531C17.0722 11.149 17.0514 11.1408 17.041 11.1368C17.0058 11.154 16.9695 11.171 16.942 11.1953C16.7488 11.3555 16.6391 11.5602 16.5514 11.7633C16.4852 11.9268 16.4335 12.0937 16.3988 12.2628C16.3527 12.53 16.282 12.8003 16.1185 13.0425C16.0298 13.1712 15.8966 13.305 15.6959 13.3345C15.5099 13.3532 15.3111 13.3093 15.1749 13.2108C15.008 13.0935 14.9349 12.923 14.8909 12.7591C14.8208 12.4649 14.8426 12.1633 14.8865 11.8679C14.916 11.6858 14.9581 11.505 15.0105 11.326C15.0277 11.3248 15.045 11.3239 15.0627 11.3231C14.9933 11.6249 14.9454 11.9314 14.9575 12.2382C14.9684 12.4131 14.9957 12.5912 15.0902 12.753C15.1544 12.8638 15.2632 12.967 15.4145 13.0147C15.5574 13.0584 15.7337 13.0663 15.8674 13.0011C16.0057 12.9329 16.0706 12.811 16.122 12.6981C16.2231 12.4481 16.2678 12.1882 16.3472 11.9343C16.4305 11.6766 16.5502 11.4258 16.6971 11.1847C16.7812 11.0441 16.874 10.9059 16.993 10.78C17.0987 10.6678 17.1958 10.5448 17.3458 10.4624C17.357 10.4628 17.3791 10.4637 17.3903 10.4641C17.4179 10.5486 17.3854 10.6361 17.3805 10.7216C17.3712 10.8628 17.3029 10.9955 17.2636 11.1324C17.2149 11.2889 17.1732 11.4468 17.1314 11.6045C17.0669 11.8303 17.021 12.0685 17.1022 12.2957C17.1635 12.4738 17.3271 12.631 17.5479 12.7122C17.6915 12.769 17.8526 12.7978 18.0142 12.8022C18.2414 12.8194 18.4789 12.7989 18.682 12.7167C18.9269 12.6207 19.1003 12.4468 19.2126 12.261C19.3225 12.0754 19.3853 11.8743 19.4035 11.6718C19.406 11.2696 19.3688 10.8595 19.1858 10.4781C19.1625 10.4254 19.132 10.3707 19.1453 10.3142C19.1742 10.1591 19.2431 10.0098 19.3239 9.86608C19.329 9.8496 19.3553 9.84842 19.3711 9.83998C19.4575 10.0341 19.5415 10.2295 19.5939 10.4307C19.66 10.6922 19.698 10.9572 19.7371 11.2215C19.7681 11.4101 19.7772 11.6017 19.8402 11.7867C19.8924 11.9402 19.9737 12.0904 20.1015 12.2176C20.2568 12.3798 20.49 12.5002 20.7492 12.5462C20.9711 12.5849 21.2081 12.5351 21.3948 12.4419C21.493 12.3916 21.5948 12.3068 21.5622 12.2107C21.2514 11.5962 20.9959 10.9669 20.7419 10.3383C20.725 10.2864 20.693 10.2367 20.6877 10.1834C20.7207 10.0171 20.7981 9.85766 20.8854 9.70364Z" fill="white"/>
<path d="M17.6602 9.81079C17.8913 9.9295 18.0808 10.1008 18.1691 10.3021C18.2129 10.4078 18.2291 10.5204 18.212 10.6306C18.1994 10.7108 18.1824 10.7941 18.1226 10.8631C18.1142 10.8421 18.1198 10.8205 18.1251 10.7995C18.1649 10.6402 18.131 10.4694 18.0211 10.3293C17.9305 10.2124 17.7964 10.1144 17.6387 10.0497C17.6417 9.96982 17.652 9.89037 17.6602 9.81079Z" fill="white"/>
<path d="M5.5711 10.0299C5.61457 9.97218 5.6626 9.91275 5.73797 9.87573C5.61773 10.0707 5.47784 10.2644 5.43314 10.4796C5.41912 10.5499 5.41859 10.6306 5.47854 10.6897C5.53464 10.7428 5.63665 10.7438 5.71606 10.7252C5.80493 10.6984 5.8463 10.6267 5.88784 10.5671C5.90643 10.5675 5.91029 10.5839 5.91922 10.5938C5.87241 10.732 5.82719 10.882 5.68853 10.9867C5.5597 11.0891 5.30553 11.0364 5.24225 10.9092C5.19632 10.8178 5.21157 10.7166 5.23857 10.6233C5.30484 10.4133 5.43034 10.2169 5.5711 10.0299Z" fill="white"/>
<path d="M25.8699 9.97665C25.9036 9.93251 25.9556 9.87809 26.0328 9.88573C26.1146 9.89957 26.1947 9.93264 26.245 9.98429C26.2706 10.0166 26.2918 10.0659 26.2464 10.0943C26.2226 10.1118 26.2056 10.1415 26.1761 10.1503C26.135 10.1099 26.103 10.0377 26.0198 10.0398C25.9155 10.0686 25.8578 10.1481 25.8266 10.2236C25.7619 10.3793 25.7488 10.5435 25.7285 10.7047C25.7078 10.7208 25.6799 10.7298 25.655 10.7412C25.655 10.5777 25.6045 10.4026 25.4487 10.2818C25.3737 10.2748 25.2845 10.2681 25.2424 10.2134C25.1912 10.1437 25.1544 10.0577 25.1898 9.97916C25.2692 9.96743 25.3336 10.0122 25.3875 10.0494C25.5302 10.1478 25.6224 10.2781 25.7057 10.4076C25.7409 10.2606 25.7763 10.1101 25.8699 9.97665Z" fill="white"/>
<path d="M15.0985 10.0625C15.1457 9.97619 15.2693 9.90373 15.3981 9.92033C15.4624 9.93074 15.5075 9.97329 15.5304 10.0174C15.5755 10.1083 15.5821 10.2074 15.5664 10.3031C15.6454 10.3742 15.7313 10.4463 15.7644 10.5385C15.8258 10.6599 15.7709 10.7894 15.7187 10.9065C15.6519 11.0615 15.525 11.2022 15.5013 11.3669C15.4931 11.4076 15.5139 11.452 15.5693 11.4661C15.6584 11.4463 15.6722 11.3668 15.6905 11.3088C15.7183 11.3038 15.762 11.3015 15.7716 11.328C15.7869 11.4013 15.7441 11.4718 15.7096 11.5386C15.6784 11.5893 15.6351 11.6493 15.555 11.6606C15.491 11.6694 15.4421 11.6273 15.4165 11.5886C15.3435 11.4774 15.3665 11.3455 15.4275 11.2345C15.5225 11.0575 15.648 10.8794 15.6365 10.6831C15.6368 10.5997 15.5902 10.5201 15.5157 10.4593C15.4044 10.6853 15.2244 10.889 15.017 11.0714C14.9097 11.1715 14.7556 11.2326 14.6086 11.2936C14.4769 11.3449 14.3434 11.3954 14.2031 11.4324C14.4731 11.2864 14.732 11.1268 14.956 10.9415C15.1408 10.7856 15.3108 10.6098 15.3793 10.4043L15.3748 10.3927C15.2749 10.3442 15.1548 10.3014 15.1027 10.2157C15.0806 10.167 15.0834 10.1122 15.0985 10.0625ZM15.1986 10.0873C15.1728 10.0998 15.1905 10.1238 15.2116 10.1319C15.2745 10.1595 15.3392 10.185 15.4046 10.2093C15.403 10.1597 15.4149 10.0982 15.3572 10.0629C15.3073 10.0315 15.2389 10.0587 15.1986 10.0873Z" fill="white"/>
<path d="M13.4115 10.1981C13.4486 10.2056 13.4755 10.2284 13.5061 10.2446C13.6919 10.3597 13.8467 10.5092 13.9205 10.683C13.9896 10.8403 13.9854 11.013 13.9239 11.1713C13.9154 11.1987 13.8923 11.2208 13.872 11.2437C13.8704 11.2408 13.8672 11.2349 13.8655 11.232C13.9104 11.0858 13.9037 10.9283 13.8253 10.7892C13.7407 10.6367 13.582 10.5105 13.3906 10.4311C13.3955 10.3533 13.4036 10.2756 13.4115 10.1981Z" fill="white"/>
<path d="M10.6185 10.3466L10.6323 10.357C10.6018 10.3861 10.6174 10.4246 10.6223 10.458C10.639 10.5301 10.6628 10.6015 10.6958 10.6704C10.7066 10.7013 10.7492 10.716 10.7855 10.7263C10.8172 10.7313 10.8686 10.743 10.8817 10.7111C10.86 10.6364 10.8078 10.5698 10.7755 10.4981C10.7907 10.4567 10.7979 10.4123 10.8241 10.374C10.8416 10.3742 10.8595 10.3748 10.8773 10.3757C10.8949 10.456 10.9504 10.5268 10.9904 10.601C10.9881 10.6773 10.985 10.7565 10.9467 10.8281C10.9229 10.8766 10.847 10.8895 10.786 10.8889C10.6968 10.8794 10.6382 10.8227 10.5855 10.7735C10.5515 10.8454 10.4645 10.9017 10.3632 10.9115C10.278 10.9148 10.2058 10.8632 10.1834 10.8043C10.1537 10.7264 10.1571 10.6428 10.1811 10.5644C10.1999 10.5095 10.2365 10.4503 10.3119 10.4292C10.2524 10.5047 10.2377 10.5976 10.271 10.6817C10.284 10.7165 10.308 10.7601 10.3627 10.7651C10.4233 10.7659 10.4684 10.7312 10.5117 10.7041C10.5229 10.618 10.5094 10.531 10.5236 10.445C10.5455 10.408 10.5894 10.3805 10.6185 10.3466Z" fill="white"/>
<path d="M25.7868 10.877C26.1239 10.7673 26.461 10.6567 26.8058 10.5618C26.7952 10.6207 26.7669 10.6879 26.6906 10.7159C26.201 10.873 25.7095 11.0274 25.2303 11.2019C25.1351 11.2414 25.0373 11.282 24.9631 11.3429C25.0161 11.3867 25.0953 11.4032 25.1668 11.423C25.1659 11.4655 25.1661 11.5081 25.1661 11.5508C25.0648 11.5323 24.9633 11.5045 24.8848 11.4514C24.8893 11.3909 24.8879 11.3301 24.899 11.27C24.9104 11.2154 24.9845 11.1898 25.0381 11.1601C25.2757 11.0489 25.5328 10.9642 25.7868 10.877Z" fill="white"/>
<path d="M18.0361 11.046C18.0889 10.9968 18.136 10.9403 18.2061 10.9044C18.1599 10.9573 18.1793 11.0225 18.1904 11.0807C18.2163 11.1894 18.2549 11.2964 18.3005 11.4014C18.3148 11.4453 18.3749 11.464 18.4246 11.4809C18.4694 11.4935 18.5234 11.5053 18.569 11.4884C18.5977 11.4694 18.5842 11.437 18.5741 11.4136C18.5302 11.3216 18.4854 11.2294 18.4237 11.1432C18.4379 11.1025 18.4475 11.0605 18.4712 11.022C18.4759 11.0213 18.4856 11.02 18.4905 11.0194C18.4847 11.0109 18.4792 11.0025 18.474 10.9942C18.4808 10.9771 18.4875 10.9598 18.4945 10.9427C18.5253 10.9445 18.5562 10.9461 18.5876 10.9475C18.6018 11.071 18.692 11.1788 18.7571 11.2896C18.7548 11.3841 18.7457 11.4793 18.7185 11.5718C18.7031 11.6264 18.6696 11.6839 18.6011 11.7113C18.5224 11.7348 18.4286 11.7457 18.3516 11.7132C18.2624 11.6747 18.1911 11.6161 18.1351 11.552C18.0903 11.6502 17.9825 11.7279 17.8515 11.76C17.7614 11.7854 17.6543 11.7582 17.5928 11.7046C17.5145 11.6435 17.4934 11.5549 17.4859 11.4734C17.4797 11.3685 17.491 11.2603 17.5455 11.1627C17.5767 11.106 17.6324 11.0561 17.7062 11.0286C17.6338 11.1366 17.5967 11.2623 17.6372 11.3817C17.6551 11.4443 17.6849 11.5241 17.7776 11.5437C17.8777 11.5534 17.9572 11.4962 18.0218 11.4466C18.0338 11.3133 18.0263 11.1792 18.0361 11.046Z" fill="white"/>
<path d="M10.5178 11.2154C10.7508 11.3288 10.9362 11.5014 11.0249 11.7C11.097 11.8605 11.0919 12.037 11.0277 12.1984C11.0191 12.2246 10.9928 12.2443 10.9693 12.2635C11.0167 12.1112 11.0116 11.9461 10.9268 11.8016C10.8403 11.6523 10.6819 11.5292 10.4941 11.4496C10.5043 11.3716 10.5094 11.2934 10.5178 11.2154Z" fill="white"/>
<path d="M25.9854 12.1339C26.0343 12.089 26.082 12.0433 26.1356 12.0015C26.0846 12.0911 26.1235 12.1885 26.1477 12.2792C26.1752 12.3624 26.2017 12.4463 26.2434 12.5261C26.2955 12.5774 26.3868 12.6035 26.4709 12.6015C26.51 12.6014 26.5286 12.567 26.5151 12.5424C26.4739 12.4422 26.4204 12.345 26.3596 12.2508C26.3714 12.1816 26.4055 12.1151 26.4295 12.0476C26.4586 12.0496 26.4883 12.0514 26.5181 12.0537C26.5375 12.1763 26.6229 12.285 26.6899 12.3952C26.6871 12.4839 26.6788 12.5731 26.656 12.6603C26.6388 12.721 26.6089 12.7914 26.5272 12.8188C26.4576 12.8391 26.3761 12.8504 26.3058 12.8259C26.2026 12.7915 26.1293 12.7238 26.0658 12.6561C26.0257 12.7518 25.9237 12.8277 25.7985 12.8613C25.6956 12.8969 25.5705 12.8596 25.5052 12.7945C25.4304 12.7177 25.4172 12.6188 25.416 12.5264C25.4202 12.4377 25.4295 12.3464 25.4803 12.265C25.5133 12.2103 25.5643 12.1566 25.6427 12.1361C25.5382 12.2659 25.5266 12.4323 25.6037 12.5717C25.626 12.6113 25.6718 12.6495 25.7327 12.6508C25.8255 12.6472 25.8975 12.597 25.9589 12.5495C25.9575 12.4363 25.9641 12.3234 25.9643 12.2102C25.9687 12.1846 25.9584 12.1539 25.9854 12.1339Z" fill="white"/>
<path d="M32.8451 12.0295C33.1298 12.1735 33.3645 12.379 33.4916 12.6197C33.6167 12.8531 33.6157 13.1179 33.5149 13.3563C33.5012 13.3838 33.4719 13.4045 33.4474 13.4266C33.4912 13.2648 33.5063 13.095 33.4453 12.9345C33.3591 12.6802 33.1124 12.469 32.8125 12.3412C32.8274 12.2375 32.8307 12.1332 32.8451 12.0295Z" fill="white"/>
<path d="M14.0352 12.6116C14.2305 12.5211 14.4219 12.4254 14.6196 12.3379C14.6002 12.4314 14.5598 12.5395 14.4391 12.586C14.0071 12.7847 13.58 12.9893 13.1465 13.1859C13.1949 13.1115 13.2425 13.0363 13.2958 12.9638C13.5402 12.8441 13.7891 12.7293 14.0352 12.6116Z" fill="white"/>
<path d="M22.3535 12.9194C22.4126 12.8937 22.4992 12.8956 22.5391 12.9425C22.5942 13.005 22.6089 13.0866 22.5791 13.1583C22.5228 13.3005 22.3986 13.4213 22.2631 13.5265C22.0983 13.6474 21.9011 13.7589 21.668 13.7861C21.7071 13.7498 21.7642 13.7296 21.8145 13.7035C21.9589 13.6304 22.098 13.5498 22.2193 13.4556C22.2829 13.4002 22.3518 13.3404 22.3632 13.2646C22.3676 13.2011 22.2909 13.1469 22.2128 13.1363C22.0988 13.1515 22.0278 13.2255 21.9441 13.2776C21.9241 13.2316 21.9775 13.1993 22.0091 13.1656C22.1095 13.0739 22.2107 12.9754 22.3535 12.9194Z" fill="white"/>
<path d="M25.5745 14.0397C26.2131 13.7425 26.8482 13.4411 27.4876 13.1451C27.4695 13.2374 27.4343 13.3386 27.3333 13.3995C26.7142 13.6898 26.0916 13.9761 25.4727 14.2669C25.4991 14.1894 25.5408 14.1155 25.5745 14.0397Z" fill="white"/>
<path d="M17.0223 13.3376C17.1154 13.3959 17.172 13.4799 17.2349 13.5564C17.396 13.7695 17.5333 13.9921 17.6662 14.2157C17.9577 14.6957 18.1494 15.2081 18.2549 15.7292C18.2847 15.8908 18.3153 16.0532 18.3091 16.2169C18.3268 16.5416 18.3782 16.8737 18.5585 17.1726C18.5933 17.2321 18.6413 17.2863 18.6862 17.3417C18.684 17.3492 18.68 17.3641 18.6779 17.3716C18.6872 17.3655 18.6967 17.3595 18.706 17.3534C18.8232 17.4721 18.9536 17.5839 19.0937 17.6877C19.1293 17.7164 19.2013 17.741 19.2364 17.6968C19.243 17.6977 19.2565 17.6997 19.2632 17.7007C19.2586 17.6976 19.2495 17.6914 19.245 17.6882C19.2742 17.6213 19.2441 17.5497 19.2721 17.4828C19.3121 17.3729 19.4036 17.2794 19.5009 17.1941C19.6097 17.1045 19.733 17.0223 19.8785 16.9682C20.1698 16.8571 20.4718 16.7626 20.7768 16.6751C21.0064 16.6111 21.2399 16.5543 21.4787 16.5131C20.4539 16.5185 19.4292 16.5248 18.4045 16.5336C18.4556 16.3465 18.5077 16.1596 18.5605 15.9727C18.6691 15.8655 18.8059 15.7773 18.9408 15.6897C19.5284 15.3253 20.2068 15.0556 20.8937 14.814C20.8133 14.7193 20.7014 14.631 20.6837 14.5147C20.6422 14.3513 20.7325 14.1898 20.8461 14.0538C20.9134 13.9766 20.9763 13.8923 21.0799 13.8392C21.1838 13.785 21.3244 13.7816 21.4382 13.8199C21.5108 13.8447 21.5849 13.867 21.6548 13.8962C21.6562 13.902 21.6589 13.9137 21.6603 13.9195C21.6641 13.9161 21.6717 13.9091 21.6755 13.9057C21.9789 14.0331 22.2508 14.1989 22.5025 14.378C22.5316 14.4002 22.569 14.4193 22.5872 14.4481C22.5188 14.6146 22.4466 14.7803 22.3804 14.9474C22.0775 14.9982 21.773 15.0469 21.4778 15.12C21.5078 15.2606 21.5612 15.4139 21.481 15.5502C21.4529 15.5473 21.4149 15.5436 21.4101 15.5178C21.3987 15.3996 21.323 15.2921 21.2452 15.1914C20.8685 15.3029 20.4927 15.4181 20.1376 15.5648C19.8513 15.6843 19.561 15.8139 19.3489 16.0051C20.9244 16.0055 22.5001 16.0055 24.0758 16.0051C23.9748 16.1719 23.8668 16.3365 23.7639 16.5026C22.7324 16.6916 21.7027 16.8936 20.702 17.1621C20.282 17.2778 19.8623 17.4051 19.4899 17.5937C19.4513 17.6159 19.429 17.6567 19.4571 17.6899C19.5149 17.7567 19.6205 17.7843 19.709 17.8223C19.9015 17.9024 20.1148 17.946 20.3244 17.9928C20.4746 18.0262 20.6249 18.0594 20.7749 18.0931C20.7625 18.293 20.7604 18.4934 20.7442 18.693C20.6213 18.693 20.496 18.6767 20.3724 18.6685C20.1304 18.6469 19.8846 18.6324 19.6511 18.5765C19.3332 18.5009 19.0467 18.3573 18.8224 18.1725C18.5761 17.9733 18.398 17.7316 18.2704 17.4782C18.0961 17.1271 18.0085 16.754 17.9748 16.381C17.9594 16.3795 17.9443 16.3781 17.9294 16.377C17.8858 16.5414 17.8364 16.7058 17.7633 16.8645C17.7494 16.9021 17.7126 16.9309 17.6802 16.9601C17.4457 17.1649 17.1955 17.3595 16.934 17.5446C16.6663 17.7321 16.3873 17.9115 16.0858 18.0678C15.7687 18.2313 15.4256 18.3784 15.0463 18.4402C14.8424 18.4719 14.6107 18.478 14.4321 18.3852C14.2326 18.2827 14.1353 18.1046 14.0827 17.9338C13.901 18.0375 13.7178 18.1397 13.5306 18.2379C13.3616 18.3232 13.1933 18.4133 12.9998 18.4647C12.516 18.5997 12.0126 18.6883 11.5118 18.7796C11.1526 18.8407 10.7933 18.902 10.4316 18.9543C10.7666 18.8113 11.1069 18.6748 11.4404 18.5299C12.3454 18.1407 13.237 17.7317 14.088 17.2784C14.204 16.8606 14.3914 16.4403 14.7544 16.105C14.759 16.1041 14.7683 16.1021 14.7728 16.1012C14.7439 16.1474 14.7301 16.1982 14.7003 16.2441C14.4815 16.5322 14.326 16.8505 14.271 17.1803C14.6584 16.9685 15.0365 16.7465 15.3923 16.5051C15.6121 16.357 15.8186 16.1979 16.0072 16.0271C16.0591 15.9788 16.1296 15.9373 16.1492 15.8738C16.1765 15.8016 16.1355 15.7298 16.0922 15.6666C16.0966 15.6583 16.101 15.6502 16.1056 15.6421C16.0872 15.6383 16.0752 15.6302 16.0696 15.6178C15.8412 15.1757 15.6102 14.7343 15.3822 14.2922C15.4531 14.0891 15.5189 13.885 15.5906 13.6821C15.6861 13.7294 15.7483 13.8037 15.8163 13.8709C15.9552 14.0242 16.0858 14.1817 16.203 14.345C16.2686 14.4347 16.281 14.5389 16.3051 14.638C16.2109 14.5744 16.1454 14.4881 16.0409 14.4337C16.0454 14.4482 16.0518 14.4623 16.06 14.4761C16.2253 14.7213 16.3383 14.9855 16.4116 15.2545C16.4568 15.4143 16.4765 15.5783 16.4639 15.7416C16.4544 15.9187 16.4223 16.1001 16.3142 16.26C16.2181 16.4019 16.0889 16.529 15.9539 16.651C15.4964 17.0546 14.9602 17.4024 14.4156 17.7374C14.4163 17.7569 14.4458 17.7621 14.4633 17.7728C14.6582 17.8643 14.9021 17.855 15.1198 17.8266C15.2838 17.798 15.4528 17.7762 15.603 17.7159C15.9973 17.5608 16.341 17.3446 16.6728 17.1243C17.1079 16.8267 17.5177 16.5085 17.9086 16.1783C17.778 15.8299 17.6423 15.4827 17.5042 15.1361C17.4292 14.955 17.3594 14.7724 17.2697 14.5952C17.1209 14.3615 16.9778 14.125 16.8481 13.885C16.9005 13.7018 16.9664 13.5205 17.0223 13.3376ZM20.9875 14.2803C20.9398 14.2945 20.8999 14.3341 20.9198 14.3737C20.9272 14.4037 20.9709 14.4142 20.9938 14.4364C21.0893 14.5198 21.1798 14.6067 21.2629 14.6974C21.4703 14.6408 21.6808 14.5916 21.8901 14.5396C21.7343 14.4277 21.5612 14.3213 21.3533 14.2707C21.235 14.2405 21.1027 14.2442 20.9875 14.2803Z" fill="white"/>
<path d="M6.40477 13.4386C6.54746 13.4154 6.67735 13.4825 6.77884 13.5498C6.91468 13.6496 7.02792 13.7684 7.09961 13.9011C7.12135 13.9412 7.13098 13.9849 7.12292 14.028C7.11257 14.0852 7.10662 14.1479 7.05823 14.1955C7.00144 14.2349 6.91187 14.2263 6.85157 14.196C6.79162 14.1662 6.72904 14.1395 6.66384 14.1168C6.56602 14.3114 6.36619 14.4653 6.14832 14.5881C5.97724 14.6853 5.79073 14.767 5.59791 14.8373C5.45979 14.8767 5.3185 14.9105 5.17511 14.9374C5.11797 14.9491 5.05855 14.9479 5 14.9467C5.03436 14.9407 5.07099 14.9387 5.10236 14.9254C5.41613 14.7922 5.72218 14.6477 6.00738 14.4819C6.20002 14.3653 6.39126 14.2418 6.52798 14.0852C6.46155 14.0739 6.39477 14.0632 6.32693 14.0583C6.27346 13.9412 6.27188 13.7986 6.38459 13.7003C6.33025 13.6646 6.32237 13.6059 6.31255 13.5555C6.30222 13.5067 6.33535 13.4489 6.40477 13.4386ZM6.67121 13.7302C6.69645 13.8176 6.6989 13.9073 6.70364 13.9962C6.79864 14.0043 6.89435 14.0381 6.99005 14.0205C7.0344 14.0018 7.0032 13.9589 6.98006 13.9371C6.8926 13.8563 6.78181 13.7919 6.67121 13.7302ZM6.4379 13.7678C6.40669 13.8025 6.37041 13.8426 6.37532 13.8865C6.43054 13.9386 6.52379 13.9604 6.60811 13.9719C6.61634 13.9468 6.62616 13.9223 6.63264 13.8972C6.65578 13.846 6.60319 13.8002 6.56112 13.7646C6.52975 13.736 6.46507 13.7351 6.4379 13.7678Z" fill="white"/>
<path d="M18.9455 13.7141C18.9944 13.6609 19.0496 13.6099 19.1115 13.5645C19.0659 13.6423 19.0931 13.7271 19.1143 13.8066C19.1383 13.8935 19.1707 13.9789 19.207 14.0635C19.2324 14.1273 19.3297 14.1497 19.4076 14.1622C19.4542 14.1734 19.5113 14.1473 19.4933 14.1073C19.4503 14.004 19.3955 13.9037 19.3327 13.8065C19.355 13.7412 19.3802 13.6767 19.4016 13.6113C19.431 13.6113 19.4608 13.6116 19.4908 13.6118C19.5166 13.7327 19.5932 13.8423 19.6637 13.9509C19.6638 14.0683 19.6545 14.1907 19.5991 14.302C19.5622 14.3809 19.4384 14.4054 19.3385 14.3991C19.2058 14.3799 19.1178 14.2938 19.04 14.2182C19.0012 14.3174 18.8917 14.3944 18.762 14.4255C18.6522 14.4558 18.5257 14.4118 18.4668 14.339C18.4023 14.2584 18.39 14.161 18.393 14.0688C18.3988 13.9369 18.4328 13.7831 18.5902 13.704C18.6012 13.704 18.6233 13.7041 18.6344 13.7041C18.6274 13.7065 18.613 13.7111 18.606 13.7134C18.5103 13.8451 18.5043 14.0104 18.5893 14.146C18.614 14.1888 18.6766 14.2197 18.7399 14.2096C18.8188 14.1953 18.8812 14.1531 18.935 14.1096C18.9369 13.9777 18.9362 13.8457 18.9455 13.7141Z" fill="white"/>
<path d="M5.63873 15.2989C6.27433 14.9989 6.91256 14.7017 7.54938 14.4033C7.53114 14.5075 7.48365 14.628 7.35008 14.6802C6.76058 14.9549 6.16968 15.2281 5.58106 15.5037C5.56582 15.5098 5.54986 15.5148 5.5332 15.5186C5.57073 15.446 5.5993 15.3708 5.63873 15.2989Z" fill="white"/>
<path d="M23.318 14.7036C23.3711 14.6519 23.461 14.6268 23.5459 14.6248C23.6048 14.6244 23.6333 14.672 23.6468 14.7082C23.6724 14.7937 23.677 14.8867 23.6216 14.9665C23.6503 14.9821 23.6793 14.9981 23.7087 15.0136C23.701 15.0683 23.6956 15.1234 23.6942 15.1784C23.6356 15.1549 23.5906 15.1173 23.5404 15.0857C23.3844 15.2879 23.1564 15.4633 22.8722 15.5624C22.722 15.6193 22.55 15.6442 22.3828 15.6285C22.6996 15.5434 23.0072 15.4206 23.237 15.2322C23.316 15.1677 23.3841 15.0962 23.4416 15.0198C23.397 14.9841 23.3437 14.9535 23.309 14.9118C23.2814 14.845 23.261 14.7651 23.318 14.7036ZM23.4049 14.7695C23.4279 14.8184 23.4719 14.8587 23.5176 14.8966C23.5369 14.8543 23.5622 14.8083 23.5339 14.7649C23.4907 14.7585 23.4472 14.7621 23.4049 14.7695Z" fill="white"/>
<path d="M29.2501 14.8257C29.357 14.798 29.4696 14.8344 29.557 14.8808C29.703 14.9619 29.817 15.0722 29.905 15.1907C29.952 15.2593 30.0056 15.3345 29.9867 15.4144C29.9754 15.4681 29.9698 15.5259 29.9271 15.5717C29.8797 15.6157 29.7909 15.6112 29.7313 15.585C29.6632 15.556 29.5984 15.523 29.5272 15.4985C29.431 15.695 29.2282 15.8499 29.0084 15.9727C28.8595 16.0583 28.6964 16.1287 28.5311 16.1944C28.429 16.2358 28.3161 16.2579 28.2068 16.2848C28.0976 16.3081 27.9864 16.3388 27.8711 16.3302C27.9438 16.3271 28.0013 16.2916 28.0627 16.2663C28.3824 16.1266 28.6956 15.9762 28.9801 15.7979C29.1312 15.6996 29.2857 15.5973 29.3875 15.4663C29.3218 15.4556 29.2559 15.4464 29.1894 15.4397C29.136 15.3228 29.1354 15.1799 29.2508 15.0832C29.1933 15.05 29.1866 14.9897 29.177 14.9397C29.1688 14.8961 29.1882 14.8407 29.2501 14.8257ZM29.5369 15.1152C29.5586 15.2017 29.5651 15.29 29.5669 15.378C29.6569 15.3878 29.7465 15.4147 29.8384 15.4069C29.8852 15.4018 29.8834 15.3555 29.8575 15.3335C29.7721 15.2451 29.6536 15.1786 29.5369 15.1152ZM29.2317 15.2564C29.2778 15.3206 29.3823 15.3369 29.4676 15.3575C29.4852 15.3161 29.5078 15.2728 29.4992 15.2289C29.4683 15.1836 29.4264 15.1243 29.349 15.1245C29.282 15.1504 29.2555 15.2067 29.2317 15.2564Z" fill="white"/>
<path d="M14.5527 15.2305C14.5884 15.1794 14.6585 15.1188 14.7446 15.1443C14.848 15.1678 14.9711 15.2295 14.9546 15.322C14.9269 15.3534 14.8913 15.3805 14.86 15.4098C14.8265 15.3621 14.789 15.3011 14.7104 15.291C14.6082 15.3162 14.5471 15.3932 14.5148 15.4666C14.447 15.627 14.4319 15.7963 14.413 15.963C14.3883 15.9728 14.3635 15.9826 14.3383 15.9916C14.339 15.8382 14.2946 15.6753 14.1577 15.5565C14.1267 15.5171 14.0578 15.5369 14.0112 15.5179C13.9243 15.4944 13.8927 15.4231 13.8717 15.3621C13.8612 15.3209 13.8424 15.2714 13.879 15.2346C13.956 15.218 14.0163 15.2687 14.0711 15.3008C14.2124 15.4017 14.3101 15.5316 14.39 15.6639C14.4236 15.5162 14.4592 15.3647 14.5527 15.2305Z" fill="white"/>
<path d="M5.61985 16.0644C5.67787 15.9866 5.73239 15.9019 5.83388 15.8505C5.71066 16.0375 5.58252 16.227 5.5287 16.4334C5.51082 16.5123 5.50188 16.6035 5.56972 16.6714C5.62248 16.7139 5.70715 16.7217 5.77937 16.7085C5.88893 16.6903 5.93994 16.6042 5.98516 16.5358C6.01987 16.5868 5.98393 16.6419 5.96798 16.6927C5.92258 16.8004 5.86842 16.917 5.74309 16.9869C5.64685 17.0423 5.5089 17.0201 5.41634 16.9714C5.29434 16.8997 5.29154 16.7697 5.31293 16.6644C5.36113 16.4513 5.48575 16.2536 5.61985 16.0644Z" fill="white"/>
<path d="M23.7931 17.3641C23.7993 17.3594 23.8073 17.3575 23.8173 17.3587C23.7809 17.3901 23.7609 17.4296 23.7328 17.4652C23.6531 17.5785 23.5609 17.6988 23.5821 17.8321C23.5843 17.8947 23.6312 17.9756 23.7284 17.9751C23.7759 17.9573 23.7882 17.9117 23.8121 17.8789C23.8091 17.9765 23.79 18.0951 23.668 18.151C23.5667 18.1387 23.4906 18.0711 23.4866 17.9948C23.4659 17.7641 23.5944 17.5366 23.7931 17.3641Z" fill="white"/>
<path d="M17.6539 17.3983C17.7477 17.3638 17.8771 17.3688 17.9511 17.4288C18.0129 17.4839 18.0196 17.5597 18.015 17.6286C17.9654 17.6783 17.9083 17.724 17.8667 17.7781C17.7798 17.7903 17.6885 17.7796 17.6035 17.7988C17.5607 17.8175 17.5048 17.8289 17.4843 17.8665C17.4574 17.9152 17.4699 17.9692 17.4813 18.0195C17.5254 18.1953 17.6071 18.368 17.6029 18.549C17.5982 18.6125 17.5926 18.6784 17.5526 18.7359C17.5433 18.6352 17.4962 18.5401 17.462 18.4432C17.3975 18.2668 17.3463 18.0858 17.3388 17.9024C17.3303 17.8317 17.3843 17.771 17.4389 17.7178C17.5193 17.6332 17.6636 17.6084 17.7917 17.5901C17.7584 17.567 17.7207 17.5404 17.6715 17.5456C17.6026 17.5531 17.5559 17.5964 17.5181 17.6364C17.5112 17.5482 17.5433 17.4441 17.6539 17.3983Z" fill="white"/>
<path d="M21.8867 17.5534C21.981 17.4935 22.1119 17.4877 22.2299 17.4878C22.3484 17.494 22.4737 17.4979 22.5782 17.5455C22.6276 17.5887 22.5807 17.6398 22.53 17.667C22.3246 17.7784 22.0983 17.8752 21.9316 18.0215C21.8864 18.0594 21.9098 18.1183 21.967 18.1404C22.0534 18.1729 22.1535 18.1745 22.2485 18.1727C22.4741 18.1635 22.6908 18.0993 22.8795 18.0078C22.9321 17.9827 22.9793 17.9513 23.0336 17.928C22.9172 18.0341 22.7865 18.1314 22.6422 18.216C22.5205 18.2847 22.3835 18.3442 22.2313 18.3621C22.1116 18.3698 21.9828 18.3654 21.8793 18.3146C21.7642 18.2633 21.7102 18.1486 21.7528 18.0538C21.7785 18.0006 21.8262 17.9555 21.8763 17.914C22.0057 17.811 22.1638 17.7322 22.3216 17.6562C22.2147 17.6524 22.1063 17.648 22.0001 17.6578C21.9307 17.663 21.8841 17.7022 21.8348 17.7339C21.8199 17.6721 21.8196 17.5989 21.8867 17.5534Z" fill="white"/>
<path d="M27.6931 17.6655C27.8398 17.7402 27.9691 17.8352 28.0659 17.9472C28.0741 17.9474 28.0903 17.9479 28.0985 17.9483C28.0936 17.9511 28.0838 17.9568 28.0789 17.9597C28.2577 18.1667 28.3038 18.435 28.1928 18.6679C28.1832 18.687 28.1628 18.7012 28.1455 18.7165C28.1798 18.5876 28.19 18.4511 28.1362 18.3245C28.0624 18.1406 27.8792 17.9875 27.6562 17.8971L27.6724 17.8958C27.6761 17.8187 27.6871 17.7421 27.6931 17.6655Z" fill="white"/>
<path d="M29.8821 18.5554C30.5857 18.2994 31.2869 18.0397 31.9906 17.7842C31.9535 17.8787 31.9048 17.9867 31.7798 18.0344C31.131 18.2696 30.4835 18.5068 29.8349 18.7418C29.7922 18.758 29.7498 18.7757 29.7031 18.7842C29.7459 18.7196 29.7862 18.6541 29.8274 18.589C29.8362 18.5708 29.8609 18.5635 29.8821 18.5554Z" fill="white"/>
</g>
<defs>
<clipPath id="clip0_62_3582">
<rect width="40" height="38" rx="19" fill="white"/>
</clipPath>
</defs>
</svg>
