<svg width="40" height="40" viewBox="0 0 40 40" fill="none" xmlns="http://www.w3.org/2000/svg">
<g clip-path="url(#clip0_62_3496)">
<path d="M50 0H-10V40H50V0Z" fill="#B22234"/>
<path d="M-10 4.61536H50.0586H-10ZM50.0586 10.7692H-10H50.0586ZM-10 16.9231H50.0586H-10ZM50.0586 23.0769H-10H50.0586ZM-10 29.2308H50.0586H-10ZM50.0586 35.3846H-10H50.0586Z" fill="black"/>
<path d="M-10 4.61536H50.0586M50.0586 10.7692H-10M-10 16.9231H50.0586M50.0586 23.0769H-10M-10 29.2308H50.0586M50.0586 35.3846H-10" stroke="white" stroke-width="2.73525"/>
<path d="M20.4 0H-10V21.7093H20.4V0Z" fill="#3C3B6E"/>
<path d="M0.135375 3.07755L0.858803 5.30403L-1.03516 3.92799H1.30591L-0.588053 5.30403L0.135375 3.07755Z" fill="white"/>
<path d="M0.135375 7.38521L0.858803 9.61169L-1.03516 8.23565H1.30591L-0.588053 9.61169L0.135375 7.38521Z" fill="white"/>
<path d="M0.135375 11.6927L0.858803 13.9192L-1.03516 12.5432H1.30591L-0.588053 13.9192L0.135375 11.6927Z" fill="white"/>
<path d="M0.135375 16.0005L0.858803 18.227L-1.03516 16.8509H1.30591L-0.588053 18.227L0.135375 16.0005Z" fill="white"/>
<path d="M2.66663 0.923958L3.39005 3.15044L1.49609 1.7744H3.83716L1.9432 3.15044L2.66663 0.923958Z" fill="white"/>
<path d="M2.66663 5.2317L3.39005 7.45819L1.49609 6.08215H3.83716L1.9432 7.45819L2.66663 5.2317Z" fill="white"/>
<path d="M2.66663 9.53924L3.39005 11.7657L1.49609 10.3897H3.83716L1.9432 11.7657L2.66663 9.53924Z" fill="white"/>
<path d="M2.66663 13.847L3.39005 16.0735L1.49609 14.6974H3.83716L1.9432 16.0735L2.66663 13.847Z" fill="white"/>
<path d="M2.66663 18.1544L3.39005 20.3809L1.49609 19.0049H3.83716L1.9432 20.3809L2.66663 18.1544Z" fill="white"/>
<path d="M5.19983 3.07728L5.92326 5.30376L4.0293 3.92772H6.37036L4.4764 5.30376L5.19983 3.07728Z" fill="white"/>
<path d="M5.19983 7.38503L5.92326 9.61151L4.0293 8.23547H6.37036L4.4764 9.61151L5.19983 7.38503Z" fill="white"/>
<path d="M5.19983 11.6926L5.92326 13.919L4.0293 12.543H6.37036L4.4764 13.919L5.19983 11.6926Z" fill="white"/>
<path d="M5.19983 16.0003L5.92326 18.2268L4.0293 16.8507H6.37036L4.4764 18.2268L5.19983 16.0003Z" fill="white"/>
<path d="M7.73498 0.923515L8.45841 3.15L6.56445 1.77396H8.90552L7.01156 3.15L7.73498 0.923515Z" fill="white"/>
<path d="M7.73498 5.23149L8.45841 7.45797L6.56445 6.08193H8.90552L7.01156 7.45797L7.73498 5.23149Z" fill="white"/>
<path d="M7.73498 9.53902L8.45841 11.7655L6.56445 10.3895H8.90552L7.01156 11.7655L7.73498 9.53902Z" fill="white"/>
<path d="M7.73498 13.8468L8.45841 16.0732L6.56445 14.6972H8.90552L7.01156 16.0732L7.73498 13.8468Z" fill="white"/>
<path d="M7.73498 18.1543L8.45841 20.3808L6.56445 19.0047H8.90552L7.01156 20.3808L7.73498 18.1543Z" fill="white"/>
<path d="M10.2662 3.07759L10.9897 5.30407L9.0957 3.92803H11.4368L9.54281 5.30407L10.2662 3.07759Z" fill="white"/>
<path d="M10.2662 7.38534L10.9897 9.61182L9.0957 8.23578H11.4368L9.54281 9.61182L10.2662 7.38534Z" fill="white"/>
<path d="M10.2662 11.6931L10.9897 13.9196L9.0957 12.5435H11.4368L9.54281 13.9196L10.2662 11.6931Z" fill="white"/>
<path d="M10.2662 16.0008L10.9897 18.2273L9.0957 16.8513H11.4368L9.54281 18.2273L10.2662 16.0008Z" fill="white"/>
<path d="M12.7994 0.923294L13.5229 3.14978L11.6289 1.77373H13.97L12.076 3.14978L12.7994 0.923294Z" fill="white"/>
<path d="M12.7994 5.23127L13.5229 7.45775L11.6289 6.08171H13.97L12.076 7.45775L12.7994 5.23127Z" fill="white"/>
<path d="M12.7994 9.5388L13.5229 11.7653L11.6289 10.3892H13.97L12.076 11.7653L12.7994 9.5388Z" fill="white"/>
<path d="M12.7994 13.8465L13.5229 16.073L11.6289 14.697H13.97L12.076 16.073L12.7994 13.8465Z" fill="white"/>
<path d="M12.7994 18.1543L13.5229 20.3808L11.6289 19.0047H13.97L12.076 20.3808L12.7994 18.1543Z" fill="white"/>
<path d="M15.3346 3.07759L16.058 5.30407L14.1641 3.92803H16.5051L14.6112 5.30407L15.3346 3.07759Z" fill="white"/>
<path d="M15.3346 7.38534L16.058 9.61182L14.1641 8.23578H16.5051L14.6112 9.61182L15.3346 7.38534Z" fill="white"/>
<path d="M15.3346 11.6931L16.058 13.9196L14.1641 12.5435H16.5051L14.6112 13.9196L15.3346 11.6931Z" fill="white"/>
<path d="M15.3346 16.0008L16.058 18.2273L14.1641 16.8513H16.5051L14.6112 18.2273L15.3346 16.0008Z" fill="white"/>
<path d="M17.8678 0.923294L18.5912 3.14978L16.6973 1.77373H19.0383L17.1444 3.14978L17.8678 0.923294Z" fill="white"/>
<path d="M17.8678 5.23104L18.5912 7.45752L16.6973 6.08148H19.0383L17.1444 7.45752L17.8678 5.23104Z" fill="white"/>
<path d="M17.8678 9.53857L18.5912 11.7651L16.6973 10.389H19.0383L17.1444 11.7651L17.8678 9.53857Z" fill="white"/>
<path d="M17.8678 13.8463L18.5912 16.0728L16.6973 14.6968H19.0383L17.1444 16.0728L17.8678 13.8463Z" fill="white"/>
<path d="M17.8678 18.1541L18.5912 20.3806L16.6973 19.0045H19.0383L17.1444 20.3806L17.8678 18.1541Z" fill="white"/>
</g>
<defs>
<clipPath id="clip0_62_3496">
<rect width="40" height="40" rx="20" fill="white"/>
</clipPath>
</defs>
</svg>
