<svg width="139" height="177" viewBox="0 0 139 177" fill="none" xmlns="http://www.w3.org/2000/svg">
<path d="M118.115 80.6078C123.523 62.6471 126.857 31.9411 104.115 10.9411C86.7355 -5.10825 39.7821 -6.72558 23.4488 28.2744C20.7221 34.1171 24.4488 43.2744 31.7821 42.9411C34.6641 42.8078 36.4488 51.9411 38.1155 57.6078C35.7821 80.6078 14.9942 81.0324 4.44882 98.6077C-8.55118 120.274 7.44882 152.274 45.7821 152.274C84.1155 152.274 106.09 120.544 118.115 80.6078Z" fill="url(#paint0_linear_603_4074)"/>
<path d="M131.115 133.224C136.004 142.64 138.449 176.941 138.449 176.941H1.11548C1.11548 176.941 3.56015 142.64 8.44881 133.224C15.7821 119.1 69.7822 100.941 69.7822 100.941C69.7822 100.941 123.782 119.1 131.115 133.224Z" fill="url(#paint1_linear_603_4074)"/>
<path d="M85.7823 108.941C85.7823 108.941 77.2716 113.608 69.4423 113.608C61.6129 113.608 53.7822 108.941 53.7822 108.941V94.2745C52.0979 94.5407 50.3916 94.642 48.6876 94.5771C32.6956 94.5758 26.6656 71.2818 29.7822 42.9411C31.7822 42.9411 36.4489 42.9411 43.1156 33.6078C41.4489 46.6078 60.7823 44.6078 68.1156 34.2745C64.4489 46.6078 74.1156 54.9411 82.4489 49.9411C98.7896 40.1365 102.463 70.0251 85.7823 70.2745V108.941Z" fill="url(#paint2_linear_603_4074)"/>
<g opacity="0.782" style="mix-blend-mode:multiply">
<path d="M53.7822 94.2744C62.0521 92.7519 69.9653 89.6996 77.1156 85.2744C77.1156 85.2744 68.7822 99.6077 53.7822 99.6077V94.2744Z" fill="#FFD7B8"/>
</g>
<path d="M69.8042 112.924C74.6222 112.706 85.7822 110.346 85.7822 105.248V100.941C87.0049 100.941 90.5055 103.829 92.3062 106.274C99.4235 115.941 91.5289 124.608 85.0902 124.608C76.9662 124.608 71.5822 117.82 69.7822 114.554C67.9822 117.821 62.5982 124.608 54.4742 124.608C48.0355 124.608 40.1409 115.941 47.2582 106.274C49.0589 103.829 52.5595 100.941 53.7822 100.941V105.248C53.7822 110.346 65.2435 112.706 69.8042 112.924Z" fill="white"/>
<path d="M67.1155 158.274C67.1155 157.747 67.2719 157.231 67.5649 156.793C67.8579 156.354 68.2744 156.013 68.7617 155.811C69.2489 155.609 69.7851 155.556 70.3024 155.659C70.8197 155.762 71.2948 156.016 71.6678 156.389C72.0407 156.762 72.2947 157.237 72.3976 157.754C72.5005 158.271 72.4477 158.808 72.2458 159.295C72.044 159.782 71.7022 160.199 71.2637 160.492C70.8251 160.785 70.3096 160.941 69.7821 160.941C69.0749 160.941 68.3966 160.66 67.8965 160.16C67.3964 159.66 67.1155 158.982 67.1155 158.274ZM67.1155 144.941C67.1155 144.414 67.2719 143.898 67.5649 143.46C67.8579 143.021 68.2744 142.679 68.7617 142.477C69.2489 142.276 69.7851 142.223 70.3024 142.326C70.8197 142.429 71.2948 142.683 71.6678 143.055C72.0407 143.428 72.2947 143.904 72.3976 144.421C72.5005 144.938 72.4477 145.474 72.2458 145.962C72.044 146.449 71.7022 146.865 71.2637 147.158C70.8251 147.451 70.3096 147.608 69.7821 147.608C69.0749 147.608 68.3966 147.327 67.8965 146.827C67.3964 146.327 67.1155 145.648 67.1155 144.941ZM67.1155 131.608C67.1155 131.08 67.2719 130.565 67.5649 130.126C67.8579 129.688 68.2744 129.346 68.7617 129.144C69.2489 128.942 69.7851 128.889 70.3024 128.992C70.8197 129.095 71.2948 129.349 71.6678 129.722C72.0407 130.095 72.2947 130.57 72.3976 131.088C72.5005 131.605 72.4477 132.141 72.2458 132.628C72.044 133.116 71.7022 133.532 71.2637 133.825C70.8251 134.118 70.3096 134.274 69.7821 134.274C69.0749 134.274 68.3966 133.993 67.8965 133.493C67.3964 132.993 67.1155 132.315 67.1155 131.608Z" fill="url(#paint3_linear_603_4074)"/>
<defs>
<linearGradient id="paint0_linear_603_4074" x1="61.0369" y1="0" x2="61.0369" y2="152.274" gradientUnits="userSpaceOnUse">
<stop stop-color="#130027"/>
<stop offset="1" stop-color="#130017"/>
</linearGradient>
<linearGradient id="paint1_linear_603_4074" x1="69.7822" y1="176.941" x2="69.7822" y2="100.941" gradientUnits="userSpaceOnUse">
<stop stop-color="#E6864E"/>
<stop offset="1" stop-color="#E67240"/>
</linearGradient>
<linearGradient id="paint2_linear_603_4074" x1="62.8133" y1="33.6078" x2="62.8133" y2="113.608" gradientUnits="userSpaceOnUse">
<stop stop-color="#FFE0CC"/>
<stop offset="1" stop-color="#FFEADB"/>
</linearGradient>
<linearGradient id="paint3_linear_603_4074" x1="69.7821" y1="128.941" x2="69.7821" y2="160.941" gradientUnits="userSpaceOnUse">
<stop stop-color="#130027"/>
<stop offset="1" stop-color="#130017"/>
</linearGradient>
</defs>
</svg>
