<svg width="40" height="45" viewBox="0 0 40 45" fill="none" xmlns="http://www.w3.org/2000/svg">
<path d="M10.8336 29.3994C13.8891 31.6215 16.9448 33.3994 20.0003 33.3994C23.0558 33.3994 26.1115 31.6215 29.167 29.3994C26.6484 28.6327 25.3706 27.4882 25.3336 25.966C25.3336 25.6947 25.3356 25.3094 25.3375 24.5859C25.3375 24.471 25.3378 24.3533 25.3383 24.2329C25.3433 22.2929 25.3515 19.7329 25.363 17.1329C27.7516 14.0367 26.8741 10.4069 26.1256 10.4974C25.208 10.609 17.2575 3.06436 15.7325 2.67752C14.2075 2.29069 10.3336 3.53952 9.66697 7.01869C9.0003 10.4979 8.72164 19.2675 11.2503 22.7687C11.9699 23.765 13.1032 24.1547 14.6503 23.9379C14.6525 24.666 14.6568 25.0747 14.667 25.8994C14.6471 27.4909 13.3695 28.6335 10.8336 29.3994Z" fill="url(#paint0_linear_316_3127)"/>
<path d="M14.667 23.9354C18.3337 23.5187 20.667 21.9354 20.667 21.9354C20.667 21.9354 18.0003 25.2687 14.667 25.9354V23.9354Z" fill="#FC9F6A"/>
<path d="M26.5835 17.1854C27.7319 14.4237 32.3335 8.79919 28.3669 5.29919C27.0335 -1.20081 19.6669 -0.48131 14.7502 1.01869C11.4457 2.02686 8.9502 4.01869 8.41687 2.51869C5.08354 5.29919 6.75287 8.01869 8.9502 8.79919C10.9445 9.50752 14.3169 10.2159 20.0512 9.54919C21.0755 9.43002 20.861 12.5672 21.4084 12.9064C22.2295 13.4152 22.8669 10.2159 25.1182 11.1765C27.3695 12.1372 26.0335 16.5915 23.6169 16.5915C22.7835 16.5915 22.3669 18.8827 24.6169 19.966C26.2502 20.7687 25.8374 18.9799 26.5835 17.1854Z" fill="url(#paint1_linear_316_3127)"/>
<path d="M37.5 34.4867C39.0867 37.7128 40 45.1533 40 45.1533H0C0 45.1533 0.913667 37.712 2.5 34.4867C4.08633 31.2613 13.35 28.2698 13.35 28.2698C18.4688 30.2687 21.6013 30.2687 26.6452 28.2687C26.6452 28.2687 35.9133 31.2605 37.5 34.4867Z" fill="url(#paint2_linear_316_3127)"/>
<path d="M21.1667 29.4354L22 44.7687H18L18.8333 29.4354C18.8333 29.4354 19.6112 28.602 20 28.602C20.3888 28.602 21.1667 29.4354 21.1667 29.4354Z" fill="url(#paint3_linear_316_3127)"/>
<path d="M21.3567 32.5507L18.7358 31.0364L18.8335 29.4354C19.3521 28.8798 19.741 28.602 20.0002 28.602C20.2594 28.602 20.6483 28.8798 21.1668 29.4354L21.3568 32.5507H21.3567Z" fill="#645050"/>
<path d="M19.9998 28.6007L18.3332 31.602L13.1665 28.4353L14.6665 26.2687L19.9998 28.2388L25.3332 26.2687L26.8332 28.4353L21.6665 31.602L19.9998 28.6007Z" fill="white"/>
<defs>
<linearGradient id="paint0_linear_316_3127" x1="19.1872" y1="2.60986" x2="19.1872" y2="33.3994" gradientUnits="userSpaceOnUse">
<stop stop-color="#F7B186"/>
<stop offset="1" stop-color="#FFC299"/>
</linearGradient>
<linearGradient id="paint1_linear_316_3127" x1="18.2403" y1="0" x2="18.2403" y2="20.1634" gradientUnits="userSpaceOnUse">
<stop stop-color="#1D0024"/>
<stop offset="1" stop-color="#100014"/>
</linearGradient>
<linearGradient id="paint2_linear_316_3127" x1="20" y1="28.2687" x2="20" y2="45.1533" gradientUnits="userSpaceOnUse">
<stop stop-color="#1D0024"/>
<stop offset="1" stop-color="#100014"/>
</linearGradient>
<linearGradient id="paint3_linear_316_3127" x1="20" y1="28.602" x2="20" y2="44.7687" gradientUnits="userSpaceOnUse">
<stop stop-color="#806A6A"/>
<stop offset="1" stop-color="#665654"/>
</linearGradient>
</defs>
</svg>
